<?xml version="1.0" encoding="utf-8" standalone="no"?>
<!DOCTYPE svg PUBLIC "-//W3C//DTD SVG 1.1//EN"
  "http://www.w3.org/Graphics/SVG/1.1/DTD/svg11.dtd">
<svg xmlns:xlink="http://www.w3.org/1999/xlink" width="576pt" height="432pt" viewBox="0 0 576 432" xmlns="http://www.w3.org/2000/svg" version="1.1">
 <metadata>
  <rdf:RDF xmlns:dc="http://purl.org/dc/elements/1.1/" xmlns:cc="http://creativecommons.org/ns#" xmlns:rdf="http://www.w3.org/1999/02/22-rdf-syntax-ns#">
   <cc:Work>
    <dc:type rdf:resource="http://purl.org/dc/dcmitype/StillImage"/>
    <dc:date>2022-10-22T03:03:46.689415</dc:date>
    <dc:format>image/svg+xml</dc:format>
    <dc:creator>
     <cc:Agent>
      <dc:title>Matplotlib v3.5.3, https://matplotlib.org/</dc:title>
     </cc:Agent>
    </dc:creator>
   </cc:Work>
  </rdf:RDF>
 </metadata>
 <defs>
  <style type="text/css">*{stroke-linejoin: round; stroke-linecap: butt}</style>
 </defs>
 <g id="figure_1">
  <g id="patch_1">
   <path d="M 0 432 
L 576 432 
L 576 0 
L 0 0 
z
" style="fill: #ffffff"/>
  </g>
  <g id="axes_1">
   <g id="patch_2">
    <path d="M 72 384.48 
L 518.4 384.48 
L 518.4 51.84 
L 72 51.84 
z
" style="fill: #ffffff"/>
   </g>
   <g id="matplotlib.axis_1">
    <g id="xtick_1">
     <g id="line2d_1">
      <defs>
       <path id="m6fa9563360" d="M 0 0 
L 0 3.5 
" style="stroke: #000000; stroke-width: 0.8"/>
      </defs>
      <g>
       <use xlink:href="#m6fa9563360" x="92.290909" y="384.48" style="stroke: #000000; stroke-width: 0.8"/>
      </g>
     </g>
     <g id="text_1">
      <!-- 0 -->
      <g transform="translate(89.109659 399.078438)scale(0.1 -0.1)">
       <defs>
        <path id="DejaVuSans-30" d="M 2034 4250 
Q 1547 4250 1301 3770 
Q 1056 3291 1056 2328 
Q 1056 1369 1301 889 
Q 1547 409 2034 409 
Q 2525 409 2770 889 
Q 3016 1369 3016 2328 
Q 3016 3291 2770 3770 
Q 2525 4250 2034 4250 
z
M 2034 4750 
Q 2819 4750 3233 4129 
Q 3647 3509 3647 2328 
Q 3647 1150 3233 529 
Q 2819 -91 2034 -91 
Q 1250 -91 836 529 
Q 422 1150 422 2328 
Q 422 3509 836 4129 
Q 1250 4750 2034 4750 
z
" transform="scale(0.015625)"/>
       </defs>
       <use xlink:href="#DejaVuSans-30"/>
      </g>
     </g>
    </g>
    <g id="xtick_2">
     <g id="line2d_2">
      <g>
       <use xlink:href="#m6fa9563360" x="173.780504" y="384.48" style="stroke: #000000; stroke-width: 0.8"/>
      </g>
     </g>
     <g id="text_2">
      <!-- 100 -->
      <g transform="translate(164.236754 399.078438)scale(0.1 -0.1)">
       <defs>
        <path id="DejaVuSans-31" d="M 794 531 
L 1825 531 
L 1825 4091 
L 703 3866 
L 703 4441 
L 1819 4666 
L 2450 4666 
L 2450 531 
L 3481 531 
L 3481 0 
L 794 0 
L 794 531 
z
" transform="scale(0.015625)"/>
       </defs>
       <use xlink:href="#DejaVuSans-31"/>
       <use xlink:href="#DejaVuSans-30" x="63.623047"/>
       <use xlink:href="#DejaVuSans-30" x="127.246094"/>
      </g>
     </g>
    </g>
    <g id="xtick_3">
     <g id="line2d_3">
      <g>
       <use xlink:href="#m6fa9563360" x="255.270099" y="384.48" style="stroke: #000000; stroke-width: 0.8"/>
      </g>
     </g>
     <g id="text_3">
      <!-- 200 -->
      <g transform="translate(245.726349 399.078438)scale(0.1 -0.1)">
       <defs>
        <path id="DejaVuSans-32" d="M 1228 531 
L 3431 531 
L 3431 0 
L 469 0 
L 469 531 
Q 828 903 1448 1529 
Q 2069 2156 2228 2338 
Q 2531 2678 2651 2914 
Q 2772 3150 2772 3378 
Q 2772 3750 2511 3984 
Q 2250 4219 1831 4219 
Q 1534 4219 1204 4116 
Q 875 4013 500 3803 
L 500 4441 
Q 881 4594 1212 4672 
Q 1544 4750 1819 4750 
Q 2544 4750 2975 4387 
Q 3406 4025 3406 3419 
Q 3406 3131 3298 2873 
Q 3191 2616 2906 2266 
Q 2828 2175 2409 1742 
Q 1991 1309 1228 531 
z
" transform="scale(0.015625)"/>
       </defs>
       <use xlink:href="#DejaVuSans-32"/>
       <use xlink:href="#DejaVuSans-30" x="63.623047"/>
       <use xlink:href="#DejaVuSans-30" x="127.246094"/>
      </g>
     </g>
    </g>
    <g id="xtick_4">
     <g id="line2d_4">
      <g>
       <use xlink:href="#m6fa9563360" x="336.759693" y="384.48" style="stroke: #000000; stroke-width: 0.8"/>
      </g>
     </g>
     <g id="text_4">
      <!-- 300 -->
      <g transform="translate(327.215943 399.078438)scale(0.1 -0.1)">
       <defs>
        <path id="DejaVuSans-33" d="M 2597 2516 
Q 3050 2419 3304 2112 
Q 3559 1806 3559 1356 
Q 3559 666 3084 287 
Q 2609 -91 1734 -91 
Q 1441 -91 1130 -33 
Q 819 25 488 141 
L 488 750 
Q 750 597 1062 519 
Q 1375 441 1716 441 
Q 2309 441 2620 675 
Q 2931 909 2931 1356 
Q 2931 1769 2642 2001 
Q 2353 2234 1838 2234 
L 1294 2234 
L 1294 2753 
L 1863 2753 
Q 2328 2753 2575 2939 
Q 2822 3125 2822 3475 
Q 2822 3834 2567 4026 
Q 2313 4219 1838 4219 
Q 1578 4219 1281 4162 
Q 984 4106 628 3988 
L 628 4550 
Q 988 4650 1302 4700 
Q 1616 4750 1894 4750 
Q 2613 4750 3031 4423 
Q 3450 4097 3450 3541 
Q 3450 3153 3228 2886 
Q 3006 2619 2597 2516 
z
" transform="scale(0.015625)"/>
       </defs>
       <use xlink:href="#DejaVuSans-33"/>
       <use xlink:href="#DejaVuSans-30" x="63.623047"/>
       <use xlink:href="#DejaVuSans-30" x="127.246094"/>
      </g>
     </g>
    </g>
    <g id="xtick_5">
     <g id="line2d_5">
      <g>
       <use xlink:href="#m6fa9563360" x="418.249288" y="384.48" style="stroke: #000000; stroke-width: 0.8"/>
      </g>
     </g>
     <g id="text_5">
      <!-- 400 -->
      <g transform="translate(408.705538 399.078438)scale(0.1 -0.1)">
       <defs>
        <path id="DejaVuSans-34" d="M 2419 4116 
L 825 1625 
L 2419 1625 
L 2419 4116 
z
M 2253 4666 
L 3047 4666 
L 3047 1625 
L 3713 1625 
L 3713 1100 
L 3047 1100 
L 3047 0 
L 2419 0 
L 2419 1100 
L 313 1100 
L 313 1709 
L 2253 4666 
z
" transform="scale(0.015625)"/>
       </defs>
       <use xlink:href="#DejaVuSans-34"/>
       <use xlink:href="#DejaVuSans-30" x="63.623047"/>
       <use xlink:href="#DejaVuSans-30" x="127.246094"/>
      </g>
     </g>
    </g>
    <g id="xtick_6">
     <g id="line2d_6">
      <g>
       <use xlink:href="#m6fa9563360" x="499.738883" y="384.48" style="stroke: #000000; stroke-width: 0.8"/>
      </g>
     </g>
     <g id="text_6">
      <!-- 500 -->
      <g transform="translate(490.195133 399.078438)scale(0.1 -0.1)">
       <defs>
        <path id="DejaVuSans-35" d="M 691 4666 
L 3169 4666 
L 3169 4134 
L 1269 4134 
L 1269 2991 
Q 1406 3038 1543 3061 
Q 1681 3084 1819 3084 
Q 2600 3084 3056 2656 
Q 3513 2228 3513 1497 
Q 3513 744 3044 326 
Q 2575 -91 1722 -91 
Q 1428 -91 1123 -41 
Q 819 9 494 109 
L 494 744 
Q 775 591 1075 516 
Q 1375 441 1709 441 
Q 2250 441 2565 725 
Q 2881 1009 2881 1497 
Q 2881 1984 2565 2268 
Q 2250 2553 1709 2553 
Q 1456 2553 1204 2497 
Q 953 2441 691 2322 
L 691 4666 
z
" transform="scale(0.015625)"/>
       </defs>
       <use xlink:href="#DejaVuSans-35"/>
       <use xlink:href="#DejaVuSans-30" x="63.623047"/>
       <use xlink:href="#DejaVuSans-30" x="127.246094"/>
      </g>
     </g>
    </g>
    <g id="text_7">
     <!-- Date -->
     <g transform="translate(283.249219 412.756563)scale(0.1 -0.1)">
      <defs>
       <path id="DejaVuSans-44" d="M 1259 4147 
L 1259 519 
L 2022 519 
Q 2988 519 3436 956 
Q 3884 1394 3884 2338 
Q 3884 3275 3436 3711 
Q 2988 4147 2022 4147 
L 1259 4147 
z
M 628 4666 
L 1925 4666 
Q 3281 4666 3915 4102 
Q 4550 3538 4550 2338 
Q 4550 1131 3912 565 
Q 3275 0 1925 0 
L 628 0 
L 628 4666 
z
" transform="scale(0.015625)"/>
       <path id="DejaVuSans-61" d="M 2194 1759 
Q 1497 1759 1228 1600 
Q 959 1441 959 1056 
Q 959 750 1161 570 
Q 1363 391 1709 391 
Q 2188 391 2477 730 
Q 2766 1069 2766 1631 
L 2766 1759 
L 2194 1759 
z
M 3341 1997 
L 3341 0 
L 2766 0 
L 2766 531 
Q 2569 213 2275 61 
Q 1981 -91 1556 -91 
Q 1019 -91 701 211 
Q 384 513 384 1019 
Q 384 1609 779 1909 
Q 1175 2209 1959 2209 
L 2766 2209 
L 2766 2266 
Q 2766 2663 2505 2880 
Q 2244 3097 1772 3097 
Q 1472 3097 1187 3025 
Q 903 2953 641 2809 
L 641 3341 
Q 956 3463 1253 3523 
Q 1550 3584 1831 3584 
Q 2591 3584 2966 3190 
Q 3341 2797 3341 1997 
z
" transform="scale(0.015625)"/>
       <path id="DejaVuSans-74" d="M 1172 4494 
L 1172 3500 
L 2356 3500 
L 2356 3053 
L 1172 3053 
L 1172 1153 
Q 1172 725 1289 603 
Q 1406 481 1766 481 
L 2356 481 
L 2356 0 
L 1766 0 
Q 1100 0 847 248 
Q 594 497 594 1153 
L 594 3053 
L 172 3053 
L 172 3500 
L 594 3500 
L 594 4494 
L 1172 4494 
z
" transform="scale(0.015625)"/>
       <path id="DejaVuSans-65" d="M 3597 1894 
L 3597 1613 
L 953 1613 
Q 991 1019 1311 708 
Q 1631 397 2203 397 
Q 2534 397 2845 478 
Q 3156 559 3463 722 
L 3463 178 
Q 3153 47 2828 -22 
Q 2503 -91 2169 -91 
Q 1331 -91 842 396 
Q 353 884 353 1716 
Q 353 2575 817 3079 
Q 1281 3584 2069 3584 
Q 2775 3584 3186 3129 
Q 3597 2675 3597 1894 
z
M 3022 2063 
Q 3016 2534 2758 2815 
Q 2500 3097 2075 3097 
Q 1594 3097 1305 2825 
Q 1016 2553 972 2059 
L 3022 2063 
z
" transform="scale(0.015625)"/>
      </defs>
      <use xlink:href="#DejaVuSans-44"/>
      <use xlink:href="#DejaVuSans-61" x="77.001953"/>
      <use xlink:href="#DejaVuSans-74" x="138.28125"/>
      <use xlink:href="#DejaVuSans-65" x="177.490234"/>
     </g>
    </g>
   </g>
   <g id="matplotlib.axis_2">
    <g id="ytick_1">
     <g id="line2d_7">
      <defs>
       <path id="m5b8c20c5ea" d="M 0 0 
L -3.5 0 
" style="stroke: #000000; stroke-width: 0.8"/>
      </defs>
      <g>
       <use xlink:href="#m5b8c20c5ea" x="72" y="373.14672" style="stroke: #000000; stroke-width: 0.8"/>
      </g>
     </g>
     <g id="text_8">
      <!-- 35 -->
      <g transform="translate(52.275 376.945938)scale(0.1 -0.1)">
       <use xlink:href="#DejaVuSans-33"/>
       <use xlink:href="#DejaVuSans-35" x="63.623047"/>
      </g>
     </g>
    </g>
    <g id="ytick_2">
     <g id="line2d_8">
      <g>
       <use xlink:href="#m5b8c20c5ea" x="72" y="320.537315" style="stroke: #000000; stroke-width: 0.8"/>
      </g>
     </g>
     <g id="text_9">
      <!-- 40 -->
      <g transform="translate(52.275 324.336534)scale(0.1 -0.1)">
       <use xlink:href="#DejaVuSans-34"/>
       <use xlink:href="#DejaVuSans-30" x="63.623047"/>
      </g>
     </g>
    </g>
    <g id="ytick_3">
     <g id="line2d_9">
      <g>
       <use xlink:href="#m5b8c20c5ea" x="72" y="267.92791" style="stroke: #000000; stroke-width: 0.8"/>
      </g>
     </g>
     <g id="text_10">
      <!-- 45 -->
      <g transform="translate(52.275 271.727129)scale(0.1 -0.1)">
       <use xlink:href="#DejaVuSans-34"/>
       <use xlink:href="#DejaVuSans-35" x="63.623047"/>
      </g>
     </g>
    </g>
    <g id="ytick_4">
     <g id="line2d_10">
      <g>
       <use xlink:href="#m5b8c20c5ea" x="72" y="215.318505" style="stroke: #000000; stroke-width: 0.8"/>
      </g>
     </g>
     <g id="text_11">
      <!-- 50 -->
      <g transform="translate(52.275 219.117724)scale(0.1 -0.1)">
       <use xlink:href="#DejaVuSans-35"/>
       <use xlink:href="#DejaVuSans-30" x="63.623047"/>
      </g>
     </g>
    </g>
    <g id="ytick_5">
     <g id="line2d_11">
      <g>
       <use xlink:href="#m5b8c20c5ea" x="72" y="162.709101" style="stroke: #000000; stroke-width: 0.8"/>
      </g>
     </g>
     <g id="text_12">
      <!-- 55 -->
      <g transform="translate(52.275 166.508319)scale(0.1 -0.1)">
       <use xlink:href="#DejaVuSans-35"/>
       <use xlink:href="#DejaVuSans-35" x="63.623047"/>
      </g>
     </g>
    </g>
    <g id="ytick_6">
     <g id="line2d_12">
      <g>
       <use xlink:href="#m5b8c20c5ea" x="72" y="110.099696" style="stroke: #000000; stroke-width: 0.8"/>
      </g>
     </g>
     <g id="text_13">
      <!-- 60 -->
      <g transform="translate(52.275 113.898915)scale(0.1 -0.1)">
       <defs>
        <path id="DejaVuSans-36" d="M 2113 2584 
Q 1688 2584 1439 2293 
Q 1191 2003 1191 1497 
Q 1191 994 1439 701 
Q 1688 409 2113 409 
Q 2538 409 2786 701 
Q 3034 994 3034 1497 
Q 3034 2003 2786 2293 
Q 2538 2584 2113 2584 
z
M 3366 4563 
L 3366 3988 
Q 3128 4100 2886 4159 
Q 2644 4219 2406 4219 
Q 1781 4219 1451 3797 
Q 1122 3375 1075 2522 
Q 1259 2794 1537 2939 
Q 1816 3084 2150 3084 
Q 2853 3084 3261 2657 
Q 3669 2231 3669 1497 
Q 3669 778 3244 343 
Q 2819 -91 2113 -91 
Q 1303 -91 875 529 
Q 447 1150 447 2328 
Q 447 3434 972 4092 
Q 1497 4750 2381 4750 
Q 2619 4750 2861 4703 
Q 3103 4656 3366 4563 
z
" transform="scale(0.015625)"/>
       </defs>
       <use xlink:href="#DejaVuSans-36"/>
       <use xlink:href="#DejaVuSans-30" x="63.623047"/>
      </g>
     </g>
    </g>
    <g id="ytick_7">
     <g id="line2d_13">
      <g>
       <use xlink:href="#m5b8c20c5ea" x="72" y="57.490291" style="stroke: #000000; stroke-width: 0.8"/>
      </g>
     </g>
     <g id="text_14">
      <!-- 65 -->
      <g transform="translate(52.275 61.28951)scale(0.1 -0.1)">
       <use xlink:href="#DejaVuSans-36"/>
       <use xlink:href="#DejaVuSans-35" x="63.623047"/>
      </g>
     </g>
    </g>
    <g id="text_15">
     <!-- Price in USD -->
     <g transform="translate(46.195312 248.777187)rotate(-90)scale(0.1 -0.1)">
      <defs>
       <path id="DejaVuSans-50" d="M 1259 4147 
L 1259 2394 
L 2053 2394 
Q 2494 2394 2734 2622 
Q 2975 2850 2975 3272 
Q 2975 3691 2734 3919 
Q 2494 4147 2053 4147 
L 1259 4147 
z
M 628 4666 
L 2053 4666 
Q 2838 4666 3239 4311 
Q 3641 3956 3641 3272 
Q 3641 2581 3239 2228 
Q 2838 1875 2053 1875 
L 1259 1875 
L 1259 0 
L 628 0 
L 628 4666 
z
" transform="scale(0.015625)"/>
       <path id="DejaVuSans-72" d="M 2631 2963 
Q 2534 3019 2420 3045 
Q 2306 3072 2169 3072 
Q 1681 3072 1420 2755 
Q 1159 2438 1159 1844 
L 1159 0 
L 581 0 
L 581 3500 
L 1159 3500 
L 1159 2956 
Q 1341 3275 1631 3429 
Q 1922 3584 2338 3584 
Q 2397 3584 2469 3576 
Q 2541 3569 2628 3553 
L 2631 2963 
z
" transform="scale(0.015625)"/>
       <path id="DejaVuSans-69" d="M 603 3500 
L 1178 3500 
L 1178 0 
L 603 0 
L 603 3500 
z
M 603 4863 
L 1178 4863 
L 1178 4134 
L 603 4134 
L 603 4863 
z
" transform="scale(0.015625)"/>
       <path id="DejaVuSans-63" d="M 3122 3366 
L 3122 2828 
Q 2878 2963 2633 3030 
Q 2388 3097 2138 3097 
Q 1578 3097 1268 2742 
Q 959 2388 959 1747 
Q 959 1106 1268 751 
Q 1578 397 2138 397 
Q 2388 397 2633 464 
Q 2878 531 3122 666 
L 3122 134 
Q 2881 22 2623 -34 
Q 2366 -91 2075 -91 
Q 1284 -91 818 406 
Q 353 903 353 1747 
Q 353 2603 823 3093 
Q 1294 3584 2113 3584 
Q 2378 3584 2631 3529 
Q 2884 3475 3122 3366 
z
" transform="scale(0.015625)"/>
       <path id="DejaVuSans-20" transform="scale(0.015625)"/>
       <path id="DejaVuSans-6e" d="M 3513 2113 
L 3513 0 
L 2938 0 
L 2938 2094 
Q 2938 2591 2744 2837 
Q 2550 3084 2163 3084 
Q 1697 3084 1428 2787 
Q 1159 2491 1159 1978 
L 1159 0 
L 581 0 
L 581 3500 
L 1159 3500 
L 1159 2956 
Q 1366 3272 1645 3428 
Q 1925 3584 2291 3584 
Q 2894 3584 3203 3211 
Q 3513 2838 3513 2113 
z
" transform="scale(0.015625)"/>
       <path id="DejaVuSans-55" d="M 556 4666 
L 1191 4666 
L 1191 1831 
Q 1191 1081 1462 751 
Q 1734 422 2344 422 
Q 2950 422 3222 751 
Q 3494 1081 3494 1831 
L 3494 4666 
L 4128 4666 
L 4128 1753 
Q 4128 841 3676 375 
Q 3225 -91 2344 -91 
Q 1459 -91 1007 375 
Q 556 841 556 1753 
L 556 4666 
z
" transform="scale(0.015625)"/>
       <path id="DejaVuSans-53" d="M 3425 4513 
L 3425 3897 
Q 3066 4069 2747 4153 
Q 2428 4238 2131 4238 
Q 1616 4238 1336 4038 
Q 1056 3838 1056 3469 
Q 1056 3159 1242 3001 
Q 1428 2844 1947 2747 
L 2328 2669 
Q 3034 2534 3370 2195 
Q 3706 1856 3706 1288 
Q 3706 609 3251 259 
Q 2797 -91 1919 -91 
Q 1588 -91 1214 -16 
Q 841 59 441 206 
L 441 856 
Q 825 641 1194 531 
Q 1563 422 1919 422 
Q 2459 422 2753 634 
Q 3047 847 3047 1241 
Q 3047 1584 2836 1778 
Q 2625 1972 2144 2069 
L 1759 2144 
Q 1053 2284 737 2584 
Q 422 2884 422 3419 
Q 422 4038 858 4394 
Q 1294 4750 2059 4750 
Q 2388 4750 2728 4690 
Q 3069 4631 3425 4513 
z
" transform="scale(0.015625)"/>
      </defs>
      <use xlink:href="#DejaVuSans-50"/>
      <use xlink:href="#DejaVuSans-72" x="58.552734"/>
      <use xlink:href="#DejaVuSans-69" x="99.666016"/>
      <use xlink:href="#DejaVuSans-63" x="127.449219"/>
      <use xlink:href="#DejaVuSans-65" x="182.429688"/>
      <use xlink:href="#DejaVuSans-20" x="243.953125"/>
      <use xlink:href="#DejaVuSans-69" x="275.740234"/>
      <use xlink:href="#DejaVuSans-6e" x="303.523438"/>
      <use xlink:href="#DejaVuSans-20" x="366.902344"/>
      <use xlink:href="#DejaVuSans-55" x="398.689453"/>
      <use xlink:href="#DejaVuSans-53" x="471.882812"/>
      <use xlink:href="#DejaVuSans-44" x="535.359375"/>
     </g>
    </g>
   </g>
   <g id="line2d_14">
    <path d="M 92.290909 241.202323 
L 93.105805 237.309238 
L 93.920701 254.88076 
L 94.735597 253.407703 
L 95.550493 254.459915 
L 96.365389 250.56679 
L 97.180285 255.932972 
L 97.995181 245.411091 
L 98.810077 242.780621 
L 99.624973 245.516292 
L 100.439869 286.867288 
L 101.254765 291.181257 
L 102.06966 298.230938 
L 102.884556 303.912724 
L 103.699452 306.122349 
L 104.514348 300.230081 
L 105.329244 297.283968 
L 106.14414 292.759556 
L 106.959036 291.181257 
L 107.773932 291.707343 
L 108.588828 291.3917 
L 109.403724 292.654314 
L 110.21862 288.024701 
L 111.033516 279.817647 
L 111.848412 278.449791 
L 112.663308 281.606347 
L 113.478204 283.395088 
L 115.107996 276.450648 
L 115.922892 275.293235 
L 116.737788 277.50282 
L 117.552683 276.029763 
L 118.367579 276.345407 
L 119.182475 276.450648 
L 119.997371 280.238492 
L 120.812267 286.762087 
L 121.627163 286.446403 
L 122.442059 287.814259 
L 123.256955 287.603816 
L 124.071851 292.023027 
L 124.886747 295.600468 
L 125.701643 303.176195 
L 126.516539 305.070137 
L 128.146331 301.282253 
L 128.961227 290.760372 
L 129.776123 293.285642 
L 130.591019 289.182114 
L 131.405915 287.603816 
L 132.220811 287.182971 
L 133.035706 289.7082 
L 133.850602 303.59708 
L 134.665498 305.491022 
L 135.480394 304.333609 
L 136.29529 309.69979 
L 137.110186 312.540703 
L 137.925082 312.751105 
L 138.739978 301.80838 
L 139.554874 300.440524 
L 140.36977 302.75535 
L 141.184666 303.491879 
L 141.999562 300.019639 
L 142.814458 298.862226 
L 143.629354 299.177909 
L 144.44425 294.653497 
L 145.259146 295.916112 
L 146.074042 302.229224 
L 146.888938 287.182971 
L 148.518729 287.603816 
L 149.333625 282.553318 
L 150.148521 234.88921 
L 150.963417 234.994411 
L 151.778313 223.630801 
L 152.593209 222.578589 
L 153.408105 220.158561 
L 154.223001 227.103001 
L 155.037897 227.208242 
L 155.852793 234.678768 
L 156.667689 238.782295 
L 157.482585 245.937177 
L 158.297481 236.57271 
L 159.112377 237.309238 
L 159.927273 239.729266 
L 160.742169 232.995269 
L 161.557065 227.734328 
L 162.371961 226.787357 
L 163.186857 234.047441 
L 164.001752 238.36141 
L 164.816648 237.098796 
L 165.631544 240.571036 
L 166.44644 243.201506 
L 167.261336 248.146763 
L 168.076232 238.782295 
L 168.891128 236.151825 
L 169.706024 240.886679 
L 170.52092 238.782295 
L 171.335816 243.201506 
L 172.150712 239.097939 
L 173.780504 251.934646 
L 174.5954 252.881617 
L 175.410296 258.037356 
L 176.225192 248.672849 
L 177.040088 247.725918 
L 177.854984 252.460732 
L 178.66988 261.088671 
L 179.484775 254.88076 
L 180.299671 256.669501 
L 181.114567 248.988532 
L 181.929463 248.672849 
L 182.744359 249.830262 
L 183.559255 254.459915 
L 184.374151 254.775559 
L 185.189047 256.774702 
L 186.003943 254.459915 
L 186.818839 265.507882 
L 187.633735 270.874024 
L 188.448631 265.507882 
L 189.263527 270.55838 
L 190.078423 273.399293 
L 190.893319 273.294052 
L 191.708215 268.980082 
L 192.523111 265.613083 
L 193.338007 266.454853 
L 194.152903 261.404355 
L 194.967798 257.826914 
L 195.782694 258.563442 
L 196.59759 250.145946 
L 197.412486 249.198975 
L 198.227382 245.516292 
L 199.042278 243.411908 
L 199.857174 247.620677 
L 200.67207 254.986001 
L 201.486966 254.03903 
L 202.301862 257.300828 
L 203.116758 261.193913 
L 203.931654 249.198975 
L 204.74655 242.67538 
L 205.561446 242.991063 
L 206.376342 246.884148 
L 208.006134 232.048298 
L 208.82103 238.782295 
L 209.635926 249.198975 
L 210.450821 241.728409 
L 211.265717 247.515475 
L 212.080613 247.93632 
L 212.895509 245.831976 
L 213.710405 245.831976 
L 214.525301 242.149294 
L 215.340197 242.359736 
L 216.155093 246.042378 
L 216.969989 252.460732 
L 217.784885 262.877412 
L 218.599781 292.23347 
L 219.414677 286.446403 
L 220.229573 290.655171 
L 221.044469 278.975877 
L 221.859365 276.871493 
L 222.674261 279.186319 
L 223.489157 293.285642 
L 224.304053 284.973346 
L 225.118949 278.660233 
L 225.933844 288.550787 
L 226.74874 278.449791 
L 227.563636 274.241023 
L 228.378532 280.659376 
L 229.193428 282.763761 
L 230.008324 284.342059 
L 230.82322 275.398436 
L 231.638116 274.451465 
L 232.453012 267.92791 
L 233.267908 278.554992 
L 234.082804 273.504494 
L 234.8977 277.923705 
L 235.712596 276.661091 
L 236.527492 277.081935 
L 237.342388 270.768823 
L 238.157284 277.50282 
L 238.97218 282.974203 
L 239.787076 275.293235 
L 240.601972 270.55838 
L 241.416867 261.930441 
L 242.231763 248.041562 
L 243.046659 244.990206 
L 244.676451 241.412765 
L 245.491347 241.202323 
L 246.306243 246.14762 
L 247.121139 245.516292 
L 247.936035 245.831976 
L 248.750931 246.568505 
L 249.565827 241.202323 
L 250.380723 237.624882 
L 251.195619 238.36141 
L 252.010515 236.467468 
L 252.825411 226.366472 
L 253.640307 172.494453 
L 254.455203 169.863983 
L 255.270099 169.337897 
L 256.084995 173.441424 
L 256.89989 175.019682 
L 257.714786 173.336183 
L 258.529682 179.964979 
L 259.344578 169.127454 
L 260.159474 163.971715 
L 260.97437 165.865657 
L 261.789266 162.919543 
L 262.604162 164.076956 
L 263.419058 171.863126 
L 264.233954 171.126597 
L 265.04885 173.441424 
L 265.863746 180.701507 
L 266.678642 174.388395 
L 267.493538 178.176278 
L 268.308434 173.441424 
L 269.12333 166.286542 
L 269.938226 170.074425 
L 270.753122 168.390926 
L 271.568018 168.601368 
L 272.382913 170.810954 
L 273.197809 172.389212 
L 274.012705 163.129985 
L 274.827601 160.289073 
L 275.642497 152.608105 
L 276.457393 154.607247 
L 277.272289 149.767192 
L 278.087185 152.502863 
L 278.902081 151.135048 
L 280.531873 155.764661 
L 281.346769 161.656929 
L 282.161665 160.499515 
L 282.976561 153.239392 
L 283.791457 149.556749 
L 284.606353 143.874924 
L 285.421249 152.18722 
L 286.236145 159.026458 
L 287.051041 157.658603 
L 287.865936 153.449834 
L 288.680832 152.608105 
L 289.495728 152.713306 
L 290.310624 143.243637 
L 291.12552 143.980165 
L 291.940416 150.188077 
L 292.755312 164.813485 
L 293.570208 158.605573 
L 295.2 178.597123 
L 296.014896 180.806749 
L 296.829792 185.331161 
L 297.644688 182.70069 
L 298.459584 172.494453 
L 299.27448 179.333692 
L 300.089376 194.590387 
L 301.719168 200.798298 
L 302.534064 198.693914 
L 303.348959 190.802503 
L 304.163855 187.435505 
L 305.793647 192.170359 
L 306.608543 192.065158 
L 307.423439 161.76213 
L 308.238335 161.76213 
L 309.868127 179.649335 
L 310.683023 185.752005 
L 311.497919 194.274743 
L 312.312815 219.842917 
L 313.127711 212.793236 
L 313.942607 211.214978 
L 314.757503 214.161092 
L 315.572399 208.163623 
L 316.387295 203.849653 
L 317.202191 186.17289 
L 318.017087 184.278949 
L 318.831982 191.32863 
L 319.646878 183.752862 
L 320.461774 190.381659 
L 321.27667 199.535684 
L 322.906462 187.119861 
L 323.721358 197.957386 
L 324.536254 188.066832 
L 325.35115 184.173747 
L 326.166046 184.068506 
L 326.980942 189.539889 
L 327.795838 196.379128 
L 328.610734 192.906888 
L 329.42563 185.331161 
L 330.240526 184.38419 
L 331.055422 183.016334 
L 331.870318 177.544951 
L 332.685214 177.544951 
L 333.50011 166.917869 
L 334.315005 162.709101 
L 335.129901 163.024744 
L 335.944797 173.96751 
L 336.759693 170.600511 
L 337.574589 170.705712 
L 338.389485 169.758742 
L 339.204381 170.179626 
L 340.019277 164.182157 
L 340.834173 155.975103 
L 341.649069 156.501189 
L 342.463965 156.290747 
L 343.278861 155.764661 
L 344.093757 159.552544 
L 344.908653 160.604716 
L 345.723549 163.656071 
L 346.538445 159.762987 
L 347.353341 161.130802 
L 348.168237 165.023927 
L 348.983133 158.079487 
L 349.798028 156.60639 
L 350.612924 153.028989 
L 351.42782 145.979308 
L 352.242716 144.085366 
L 353.872508 149.767192 
L 354.687404 189.750331 
L 355.5023 192.906888 
L 356.317196 190.592101 
L 357.132092 199.535684 
L 357.946988 207.216652 
L 358.761884 212.688035 
L 359.57678 207.427095 
L 361.206572 214.687178 
L 362.021468 212.161949 
L 362.836364 211.214978 
L 363.65126 209.110594 
L 364.466156 203.744452 
L 365.281051 196.58957 
L 366.095947 196.273886 
L 366.910843 195.326915 
L 367.725739 194.695628 
L 368.540635 197.115656 
L 370.170427 208.79495 
L 370.985323 202.481798 
L 371.800219 208.163623 
L 372.615115 197.326099 
L 373.430011 189.119004 
L 374.244907 194.485186 
L 375.059803 190.907745 
L 375.874699 183.752862 
L 376.689595 184.278949 
L 377.504491 186.488534 
L 378.319387 189.855573 
L 379.134283 190.592101 
L 379.949179 186.593775 
L 380.764074 189.64513 
L 381.57897 194.274743 
L 382.393866 193.748657 
L 383.208762 207.742738 
L 384.023658 214.266333 
L 384.838554 214.055891 
L 385.65345 210.373208 
L 386.468346 210.794093 
L 387.283242 206.585325 
L 388.098138 200.272212 
L 388.913034 199.956569 
L 389.72793 193.643416 
L 390.542826 205.427952 
L 391.357722 224.262088 
L 392.172618 220.895089 
L 392.987514 207.742738 
L 393.80241 201.640068 
L 394.617306 197.220857 
L 395.432202 201.850511 
L 396.247097 199.114799 
L 397.061993 198.378271 
L 397.876889 190.48686 
L 398.691785 185.541563 
L 399.506681 179.544094 
L 400.321577 174.704038 
L 401.136473 173.336183 
L 401.951369 173.230982 
L 402.766265 169.65354 
L 403.581161 174.283154 
L 404.396057 143.348838 
L 405.210953 149.767192 
L 406.025849 145.558423 
L 406.840745 144.40101 
L 407.655641 138.613984 
L 409.285433 148.294135 
L 410.100329 144.190608 
L 410.915225 144.295809 
L 411.73012 142.717511 
L 412.545016 140.507925 
L 413.359912 136.193956 
L 414.174808 128.933872 
L 414.989704 130.196487 
L 415.8046 125.882517 
L 416.619496 127.776459 
L 417.434392 126.408603 
L 418.249288 129.144315 
L 419.064184 125.882517 
L 419.87908 135.141784 
L 420.693976 134.510456 
L 423.138664 133.773928 
L 423.95356 129.249516 
L 424.768456 130.722573 
L 425.583352 128.092103 
L 426.398248 123.778133 
L 427.213143 124.830345 
L 428.842935 133.247842 
L 429.657831 133.0374 
L 430.472727 129.144315 
L 431.287623 133.247842 
L 432.102519 132.826957 
L 432.917415 133.353043 
L 433.732311 136.193956 
L 434.547207 139.455753 
L 435.362103 145.347981 
L 436.176999 145.558423 
L 436.991895 137.982696 
L 437.806791 135.036542 
L 438.621687 133.773928 
L 439.436583 137.982696 
L 440.251479 132.721756 
L 441.066375 131.143458 
L 441.881271 132.090429 
L 442.696166 140.192282 
L 443.511062 130.51213 
L 444.325958 130.51213 
L 445.140854 129.354757 
L 445.95575 133.563486 
L 446.770646 135.878312 
L 447.585542 135.352226 
L 448.400438 131.564343 
L 449.215334 132.616515 
L 450.03023 131.3539 
L 450.845126 127.039931 
L 451.660022 130.933015 
L 452.474918 138.824426 
L 453.289814 138.508782 
L 454.10471 133.879129 
L 454.919606 136.825283 
L 455.734502 131.669544 
L 456.549398 132.826957 
L 457.364294 136.193956 
L 458.179189 105.364841 
L 458.994085 99.577815 
L 459.808981 95.68473 
L 460.623877 97.473431 
L 461.438773 101.366515 
L 462.253669 104.628313 
L 463.068565 105.680525 
L 463.883461 109.889253 
L 464.698357 110.836224 
L 465.513253 113.887579 
L 466.328149 117.675463 
L 467.143045 104.628313 
L 467.957941 101.892642 
L 468.772837 103.891784 
L 469.587733 104.943957 
L 470.402629 119.358962 
L 471.217525 119.779807 
L 472.032421 115.465837 
L 472.847317 113.677137 
L 473.662212 100.103901 
L 474.477108 98.104758 
L 475.292004 99.893458 
L 476.1069 96.842144 
L 476.921796 98.525643 
L 477.736692 104.523112 
L 478.551588 99.367372 
L 479.366484 95.263845 
L 480.18138 97.683873 
L 480.996276 108.521398 
L 481.811172 115.67628 
L 482.626068 103.891784 
L 483.440964 105.25964 
L 484.25586 95.579489 
L 485.070756 93.475105 
L 485.885652 89.161135 
L 486.700548 85.899378 
L 487.515444 74.114882 
L 488.33034 73.799199 
L 489.145235 76.955755 
L 489.960131 79.060139 
L 490.775027 70.4322 
L 491.589923 70.116556 
L 492.404819 71.168728 
L 493.219715 66.96 
L 494.034611 72.852228 
L 494.849507 67.275644 
L 495.664403 74.325285 
L 497.294195 78.639254 
L 498.109091 80.217552 
L 498.109091 80.217552 
" clip-path="url(#p7bd615af7d)" style="fill: none; stroke: #1f77b4; stroke-width: 1.2; stroke-linecap: square"/>
   </g>
   <g id="line2d_15">
    <path d="M 92.290909 253.618146 
L 93.105805 256.774702 
L 93.920701 261.404355 
L 95.550493 266.13921 
L 96.365389 261.930441 
L 97.180285 262.877412 
L 97.995181 256.564259 
L 98.810077 248.988532 
L 99.624973 254.88076 
L 100.439869 298.33614 
L 101.254765 308.331935 
L 102.06966 312.225019 
L 102.884556 316.854673 
L 103.699452 318.117287 
L 104.514348 309.489348 
L 105.329244 306.22755 
L 106.14414 300.96661 
L 106.959036 297.915255 
L 107.773932 297.283968 
L 108.588828 297.599611 
L 109.403724 297.283968 
L 110.21862 294.127411 
L 111.033516 287.393374 
L 111.848412 286.972529 
L 112.663308 284.868145 
L 113.478204 288.445586 
L 114.2931 285.920317 
L 115.107996 282.132433 
L 115.922892 279.291561 
L 116.737788 280.554175 
L 117.552683 279.607204 
L 118.367579 282.027232 
L 119.182475 283.184645 
L 119.997371 288.024701 
L 120.812267 290.234286 
L 121.627163 290.865614 
L 122.442059 297.915255 
L 123.256955 297.49441 
L 124.071851 299.177909 
L 124.886747 301.177052 
L 125.701643 311.488491 
L 126.516539 314.118961 
L 127.331435 307.06932 
L 128.146331 308.437136 
L 128.961227 306.543194 
L 129.776123 297.178726 
L 131.405915 291.286499 
L 132.220811 291.602142 
L 133.035706 305.385821 
L 133.850602 310.857204 
L 134.665498 311.804134 
L 135.480394 310.962405 
L 136.29529 314.855489 
L 137.110186 317.275517 
L 137.925082 319.2747 
L 138.739978 318.643373 
L 139.554874 306.753636 
L 140.36977 309.594549 
L 141.184666 307.384964 
L 141.999562 305.701464 
L 142.814458 305.911907 
L 143.629354 305.911907 
L 144.44425 302.860552 
L 145.259146 301.387495 
L 146.074042 308.331935 
L 146.888938 302.860552 
L 147.703834 293.916969 
L 148.518729 293.706526 
L 149.333625 291.076056 
L 150.148521 261.088671 
L 150.963417 244.569322 
L 151.778313 239.518823 
L 152.593209 231.101327 
L 153.408105 230.049155 
L 155.037897 234.468325 
L 155.852793 243.622351 
L 156.667689 257.195587 
L 157.482585 255.72253 
L 158.297481 241.412765 
L 159.112377 242.991063 
L 159.927273 252.986858 
L 160.742169 240.886679 
L 161.557065 236.046624 
L 162.371961 235.836181 
L 164.001752 244.990206 
L 164.816648 244.043236 
L 165.631544 246.778947 
L 166.44644 248.77809 
L 167.261336 255.406886 
L 168.076232 250.882474 
L 168.891128 242.780621 
L 169.706024 251.198118 
L 170.52092 250.882474 
L 171.335816 250.882474 
L 172.150712 248.77809 
L 172.965608 255.301645 
L 173.780504 259.089528 
L 174.5954 260.878269 
L 175.410296 263.087854 
L 176.225192 260.667827 
L 177.040088 256.038173 
L 177.854984 258.458201 
L 178.66988 267.717468 
L 179.484775 264.771354 
L 180.299671 264.140027 
L 181.114567 255.617329 
L 181.929463 257.51123 
L 182.744359 255.72253 
L 183.559255 261.404355 
L 184.374151 262.140884 
L 185.189047 262.66697 
L 186.003943 267.612266 
L 186.818839 274.661907 
L 187.633735 279.081118 
L 188.448631 277.397619 
L 189.263527 277.818464 
L 190.078423 278.975877 
L 190.893319 285.604673 
L 191.708215 278.134147 
L 192.523111 273.188851 
L 193.338007 272.452322 
L 194.967798 264.666113 
L 195.782694 263.403498 
L 196.59759 257.721673 
L 197.412486 254.670358 
L 198.227382 252.776416 
L 199.042278 252.355531 
L 199.857174 265.823526 
L 200.67207 266.875738 
L 201.486966 259.510413 
L 202.301862 265.29744 
L 203.116758 270.137495 
L 203.931654 265.192239 
L 204.74655 258.142558 
L 205.561446 252.145089 
L 206.376342 252.671175 
L 207.191238 250.251147 
L 208.006134 241.202323 
L 208.82103 253.933789 
L 209.635926 254.670358 
L 210.450821 248.567648 
L 211.265717 258.458201 
L 212.080613 260.457384 
L 212.895509 252.25029 
L 213.710405 251.934646 
L 214.525301 251.40856 
L 215.340197 250.040704 
L 216.155093 254.249473 
L 216.969989 260.98347 
L 217.784885 288.235144 
L 218.599781 323.483429 
L 220.229573 309.384107 
L 221.044469 289.7082 
L 221.859365 284.868145 
L 222.674261 287.9195 
L 223.489157 303.070994 
L 224.304053 300.756167 
L 225.118949 286.025558 
L 225.933844 297.389169 
L 226.74874 286.867288 
L 227.563636 289.918643 
L 228.378532 291.602142 
L 229.193428 289.602999 
L 230.008324 290.444729 
L 230.82322 288.129902 
L 231.638116 280.13329 
L 232.453012 277.608021 
L 233.267908 285.499432 
L 234.082804 282.658559 
L 234.8977 285.709874 
L 235.712596 283.60553 
L 236.527492 286.130759 
L 237.342388 280.97506 
L 238.157284 286.762087 
L 238.97218 288.445586 
L 239.787076 282.027232 
L 240.601972 281.080261 
L 241.416867 279.291561 
L 242.231763 260.562585 
L 243.046659 255.091202 
L 243.861555 257.932115 
L 244.676451 252.145089 
L 245.491347 247.725918 
L 246.306243 252.145089 
L 247.121139 251.513761 
L 247.936035 251.829445 
L 248.750931 251.829445 
L 249.565827 247.93632 
L 250.380723 246.673706 
L 251.195619 246.673706 
L 252.010515 245.726735 
L 252.825411 245.937177 
L 253.640307 191.644273 
L 254.455203 189.013803 
L 255.270099 177.650152 
L 256.084995 185.225919 
L 256.89989 181.438036 
L 257.714786 187.751188 
L 258.529682 187.751188 
L 259.344578 184.805035 
L 260.159474 172.599654 
L 260.97437 173.230982 
L 261.789266 173.651866 
L 262.604162 177.860595 
L 263.419058 180.91195 
L 264.233954 178.912807 
L 265.04885 181.75372 
L 265.863746 188.698159 
L 266.678642 185.331161 
L 267.493538 185.331161 
L 268.308434 183.963305 
L 269.12333 175.545808 
L 269.938226 180.91195 
L 270.753122 175.861452 
L 271.568018 177.650152 
L 273.197809 175.440567 
L 274.012705 173.230982 
L 274.827601 170.074425 
L 275.642497 162.077773 
L 276.457393 173.96751 
L 277.272289 172.178809 
L 278.087185 159.657745 
L 278.902081 162.814302 
L 279.716977 167.86484 
L 280.531873 162.603899 
L 281.346769 173.12578 
L 282.161665 176.59798 
L 282.976561 161.76213 
L 283.791457 165.23437 
L 284.606353 157.132517 
L 285.421249 172.915338 
L 286.236145 170.810954 
L 287.051041 167.970041 
L 287.865936 158.079487 
L 288.680832 158.184689 
L 289.495728 162.919543 
L 290.310624 151.555892 
L 291.12552 149.135865 
L 291.940416 158.28993 
L 292.755312 179.649335 
L 293.570208 167.549156 
L 294.385104 177.018865 
L 295.2 193.538215 
L 296.014896 192.696445 
L 296.829792 199.956569 
L 297.644688 193.643416 
L 298.459584 201.640068 
L 299.27448 198.799155 
L 300.089376 211.741064 
L 300.904272 214.687178 
L 301.719168 224.788214 
L 302.534064 212.161949 
L 303.348959 202.060953 
L 304.163855 197.957386 
L 304.978751 199.009598 
L 305.793647 204.586182 
L 306.608543 202.166154 
L 307.423439 173.230982 
L 308.238335 167.970041 
L 309.053231 187.435505 
L 309.868127 202.060953 
L 310.683023 200.90354 
L 311.497919 219.948118 
L 312.312815 234.363124 
L 313.127711 229.312626 
L 313.942607 220.369003 
L 314.757503 230.996126 
L 315.572399 217.948976 
L 316.387295 213.95065 
L 317.202191 200.06177 
L 318.017087 193.222571 
L 318.831982 199.22004 
L 319.646878 191.32863 
L 320.461774 205.007067 
L 321.27667 213.214121 
L 322.091566 208.900152 
L 322.906462 203.744452 
L 323.721358 208.374066 
L 324.536254 205.638394 
L 325.35115 192.591244 
L 326.166046 196.58957 
L 326.980942 197.326099 
L 327.795838 209.215795 
L 328.610734 209.005393 
L 329.42563 195.7478 
L 330.240526 203.113125 
L 331.055422 190.276417 
L 331.870318 187.645947 
L 332.685214 186.488534 
L 334.315005 173.230982 
L 335.944797 184.489391 
L 336.759693 178.912807 
L 337.574589 175.966653 
L 338.389485 176.071894 
L 339.204381 180.280623 
L 340.019277 179.018008 
L 340.834173 163.761273 
L 341.649069 164.182157 
L 342.463965 167.233513 
L 343.278861 162.709101 
L 344.093757 168.390926 
L 344.908653 171.021396 
L 345.723549 170.810954 
L 346.538445 169.863983 
L 347.353341 170.074425 
L 348.168237 175.756251 
L 348.983133 163.866514 
L 349.798028 161.972572 
L 350.612924 161.551687 
L 351.42782 160.499515 
L 352.242716 155.554218 
L 353.057612 157.553361 
L 353.872508 158.28993 
L 354.687404 207.216652 
L 355.5023 198.167828 
L 357.132092 209.531479 
L 357.946988 219.948118 
L 358.761884 222.157744 
L 359.57678 217.633332 
L 360.391676 219.527274 
L 361.206572 221.000331 
L 362.021468 218.159418 
L 362.836364 218.895946 
L 363.65126 215.318505 
L 364.466156 213.319362 
L 365.281051 204.796624 
L 366.095947 205.638394 
L 366.910843 204.37574 
L 367.725739 207.427095 
L 368.540635 211.530622 
L 369.355531 212.161949 
L 370.170427 217.212447 
L 370.985323 211.109737 
L 371.800219 215.528948 
L 372.615115 211.109737 
L 373.430011 196.484329 
L 374.244907 201.008741 
L 375.059803 196.694771 
L 375.874699 193.432974 
L 376.689595 189.64513 
L 377.504491 195.958243 
L 378.319387 198.483512 
L 379.134283 195.432157 
L 379.949179 193.222571 
L 380.764074 195.642599 
L 381.57897 199.640885 
L 382.393866 204.37574 
L 383.208762 225.209059 
L 384.023658 219.842917 
L 384.838554 218.580303 
L 385.65345 220.474245 
L 386.468346 217.212447 
L 387.283242 215.002862 
L 388.098138 213.635006 
L 388.913034 205.32271 
L 389.72793 203.218326 
L 391.357722 235.941382 
L 392.172618 229.312626 
L 392.987514 217.42289 
L 393.80241 210.057565 
L 394.617306 204.060096 
L 396.247097 211.214978 
L 397.061993 204.060096 
L 397.876889 199.009598 
L 398.691785 189.329447 
L 399.506681 185.962448 
L 401.136473 177.650152 
L 401.951369 181.543277 
L 402.766265 177.965836 
L 403.581161 184.489391 
L 404.396057 157.132517 
L 405.210953 154.712489 
L 406.025849 154.502046 
L 406.840745 149.451548 
L 407.655641 146.821078 
L 409.285433 155.133333 
L 410.100329 151.661134 
L 410.915225 150.714163 
L 413.359912 145.137579 
L 414.174808 136.930484 
L 414.989704 133.458284 
L 415.8046 130.933015 
L 416.619496 133.0374 
L 417.434392 130.827814 
L 418.249288 135.141784 
L 419.064184 131.564343 
L 419.87908 138.824426 
L 420.693976 139.245311 
L 421.508872 138.824426 
L 422.323768 139.560954 
L 423.138664 138.929667 
L 423.95356 132.721756 
L 424.768456 134.089572 
L 425.583352 133.458284 
L 426.398248 134.405255 
L 427.213143 130.091286 
L 428.028039 135.246985 
L 429.657831 141.560138 
L 430.472727 137.246168 
L 431.287623 139.455753 
L 432.102519 137.351369 
L 432.917415 139.771397 
L 433.732311 149.977634 
L 434.547207 156.290747 
L 435.362103 151.661134 
L 436.176999 151.871576 
L 436.991895 152.397662 
L 437.806791 144.295809 
L 438.621687 143.243637 
L 439.436583 144.295809 
L 440.251479 140.823569 
L 441.066375 135.036542 
L 441.881271 137.667013 
L 442.696166 143.454039 
L 443.511062 145.032337 
L 444.325958 134.615698 
L 445.140854 139.455753 
L 445.95575 138.087898 
L 446.770646 141.034011 
L 447.585542 141.980982 
L 448.400438 138.929667 
L 449.215334 138.719225 
L 450.03023 137.246168 
L 450.845126 132.511313 
L 451.660022 142.822752 
L 452.474918 147.978451 
L 453.289814 148.820221 
L 454.10471 140.402724 
L 454.919606 143.033194 
L 455.734502 137.351369 
L 456.549398 137.45657 
L 457.364294 145.24278 
L 458.179189 115.465837 
L 458.994085 110.836224 
L 459.808981 101.682199 
L 460.623877 105.154399 
L 461.438773 109.152725 
L 462.253669 114.518867 
L 463.068565 110.941466 
L 463.883461 117.991107 
L 464.698357 117.465021 
L 465.513253 119.464163 
L 466.328149 125.672075 
L 467.143045 112.414522 
L 467.957941 108.521398 
L 468.772837 118.517193 
L 469.587733 135.036542 
L 470.402629 131.038257 
L 471.217525 138.719225 
L 472.032421 127.776459 
L 472.847317 122.62072 
L 473.662212 110.415339 
L 474.477108 106.94314 
L 475.292004 105.680525 
L 476.1069 101.576958 
L 476.921796 107.469226 
L 477.736692 108.73184 
L 478.551588 107.89011 
L 479.366484 104.628313 
L 480.18138 107.784869 
L 480.996276 121.252904 
L 481.811172 122.725961 
L 482.626068 114.729309 
L 483.440964 112.20408 
L 484.25586 112.20408 
L 485.070756 101.261314 
L 485.885652 98.209959 
L 487.515444 86.530665 
L 488.33034 83.47935 
L 489.145235 85.899378 
L 489.960131 87.793319 
L 490.775027 84.636763 
L 491.589923 78.218409 
L 492.404819 77.271439 
L 493.219715 74.220083 
L 494.034611 80.638437 
L 494.849507 76.324468 
L 495.664403 80.322753 
L 496.479299 81.374966 
L 497.294195 88.74029 
L 498.109091 87.688078 
L 498.109091 87.688078 
" clip-path="url(#p7bd615af7d)" style="fill: none; stroke: #ff7f0e; stroke-width: 1.2; stroke-linecap: square"/>
   </g>
   <g id="line2d_16">
    <path d="M 92.290909 242.464977 
L 93.105805 247.199792 
L 93.920701 257.826914 
L 94.735597 255.091202 
L 95.550493 264.666113 
L 96.365389 254.249473 
L 97.180285 258.037356 
L 97.995181 253.407703 
L 98.810077 243.096265 
L 99.624973 246.884148 
L 100.439869 289.497758 
L 101.254765 291.707343 
L 102.06966 310.751962 
L 102.884556 304.228407 
L 103.699452 314.329403 
L 104.514348 303.386638 
L 106.14414 297.178726 
L 106.959036 292.338671 
L 107.773932 296.968284 
L 108.588828 291.707343 
L 109.403724 292.654314 
L 110.21862 292.549113 
L 111.033516 284.973346 
L 111.848412 278.765435 
L 112.663308 282.342876 
L 113.478204 287.07773 
L 114.2931 283.60553 
L 115.107996 281.606347 
L 115.922892 276.871493 
L 116.737788 278.975877 
L 117.552683 278.554992 
L 118.367579 277.081935 
L 119.182475 281.922031 
L 119.997371 283.079404 
L 120.812267 288.866471 
L 121.627163 288.235144 
L 122.442059 288.971672 
L 123.256955 297.49441 
L 124.071851 295.810911 
L 124.886747 296.231755 
L 125.701643 306.543194 
L 126.516539 313.17199 
L 127.331435 305.070137 
L 128.146331 306.122349 
L 128.961227 305.491022 
L 129.776123 296.757882 
L 131.405915 290.234286 
L 132.220811 291.286499 
L 133.035706 289.813442 
L 133.850602 307.700607 
L 134.665498 308.752819 
L 135.480394 308.963262 
L 136.29529 312.330261 
L 137.110186 314.224202 
L 137.925082 313.592875 
L 138.739978 316.959874 
L 139.554874 303.59708 
L 140.36977 305.175378 
L 141.184666 307.384964 
L 141.999562 303.386638 
L 142.814458 305.806665 
L 143.629354 301.597937 
L 144.44425 302.018822 
L 145.259146 300.019639 
L 146.074042 302.965793 
L 146.888938 302.334466 
L 147.703834 288.971672 
L 148.518729 292.443912 
L 149.333625 290.129085 
L 150.148521 260.98347 
L 150.963417 244.46412 
L 151.778313 238.677094 
L 152.593209 228.7865 
L 153.408105 228.996943 
L 154.223001 230.259557 
L 155.037897 232.469183 
L 155.852793 238.256209 
L 156.667689 240.886679 
L 157.482585 254.565116 
L 158.297481 241.097122 
L 159.112377 241.097122 
L 159.927273 248.462446 
L 160.742169 234.363124 
L 161.557065 236.046624 
L 162.371961 227.208242 
L 163.186857 236.57271 
L 164.001752 240.99188 
L 164.816648 242.780621 
L 165.631544 243.938034 
L 166.44644 243.727592 
L 167.261336 248.672849 
L 168.076232 248.77809 
L 168.891128 241.623208 
L 169.706024 242.359736 
L 170.52092 246.252821 
L 171.335816 247.620677 
L 172.150712 242.991063 
L 172.965608 249.093734 
L 173.780504 254.144232 
L 174.5954 254.249473 
L 175.410296 259.931298 
L 176.225192 259.615614 
L 177.040088 250.461589 
L 177.854984 255.091202 
L 178.66988 263.193056 
L 179.484775 264.245268 
L 180.299671 260.246942 
L 181.114567 255.091202 
L 181.929463 249.093734 
L 182.744359 253.933789 
L 183.559255 256.038173 
L 184.374151 260.878269 
L 185.189047 257.090386 
L 186.003943 261.088671 
L 186.818839 267.507025 
L 187.633735 270.979265 
L 188.448631 273.609735 
L 189.263527 273.399293 
L 190.078423 278.870676 
L 190.893319 274.87235 
L 191.708215 273.820178 
L 192.523111 270.55838 
L 193.338007 267.822709 
L 194.152903 268.138353 
L 194.967798 263.193056 
L 195.782694 260.773028 
L 196.59759 257.300828 
L 197.412486 251.619003 
L 198.227382 250.56679 
L 199.042278 249.198975 
L 199.857174 263.298297 
L 200.67207 265.086997 
L 201.486966 258.353 
L 202.301862 258.037356 
L 203.116758 261.8252 
L 203.931654 263.719142 
L 204.74655 254.670358 
L 205.561446 243.832793 
L 206.376342 247.094591 
L 207.191238 249.514618 
L 208.006134 236.57271 
L 208.82103 239.413622 
L 209.635926 253.302502 
L 210.450821 247.410234 
L 211.265717 248.77809 
L 212.080613 255.406886 
L 212.895509 246.252821 
L 213.710405 251.829445 
L 214.525301 248.883291 
L 215.340197 248.567648 
L 216.155093 249.198975 
L 217.784885 264.771354 
L 218.599781 315.80246 
L 219.414677 293.496084 
L 220.229573 299.388352 
L 221.044469 286.551644 
L 222.674261 283.079404 
L 223.489157 297.704852 
L 224.304053 295.705669 
L 225.118949 284.657702 
L 225.933844 290.970815 
L 226.74874 285.815116 
L 227.563636 276.240206 
L 228.378532 287.709057 
L 229.193428 287.498615 
L 230.008324 284.44726 
L 230.82322 286.972529 
L 231.638116 278.765435 
L 232.453012 275.398436 
L 233.267908 283.710731 
L 234.082804 282.448117 
L 234.8977 284.973346 
L 235.712596 279.186319 
L 236.527492 284.236818 
L 237.342388 273.399293 
L 238.157284 280.238492 
L 238.97218 285.078587 
L 239.787076 279.712405 
L 240.601972 270.55838 
L 241.416867 275.608878 
L 242.231763 260.036499 
L 243.046659 253.933789 
L 243.861555 245.831976 
L 244.676451 251.513761 
L 245.491347 242.149294 
L 247.121139 251.513761 
L 247.936035 250.56679 
L 248.750931 246.778947 
L 249.565827 246.673706 
L 250.380723 242.464977 
L 251.195619 242.254535 
L 252.010515 237.204037 
L 252.825411 241.307564 
L 253.640307 191.118187 
L 254.455203 188.698159 
L 255.270099 173.336183 
L 256.084995 178.071037 
L 256.89989 178.071037 
L 257.714786 180.385864 
L 258.529682 185.331161 
L 259.344578 184.489391 
L 260.159474 171.33704 
L 260.97437 168.075242 
L 261.789266 172.284011 
L 262.604162 167.443955 
L 263.419058 172.494453 
L 264.233954 176.387538 
L 265.04885 178.702364 
L 265.863746 183.016334 
L 266.678642 182.911093 
L 267.493538 181.964162 
L 268.308434 183.752862 
L 269.12333 173.336183 
L 269.938226 170.600511 
L 270.753122 170.600511 
L 271.568018 174.072751 
L 272.382913 172.284011 
L 273.197809 175.335366 
L 274.012705 167.549156 
L 274.827601 168.917012 
L 275.642497 159.342102 
L 276.457393 157.553361 
L 277.272289 171.968367 
L 278.087185 154.396805 
L 278.902081 157.763804 
L 279.716977 158.816016 
L 280.531873 158.605573 
L 281.346769 165.760456 
L 282.161665 169.758742 
L 282.976561 155.764661 
L 283.791457 157.027275 
L 284.606353 148.399336 
L 285.421249 154.607247 
L 286.236145 163.971715 
L 287.051041 162.814302 
L 287.865936 155.343776 
L 288.680832 153.660277 
L 289.495728 159.026458 
L 290.310624 149.135865 
L 291.12552 147.241923 
L 291.940416 151.766335 
L 292.755312 169.863983 
L 293.570208 163.445629 
L 294.385104 169.863983 
L 295.2 186.909419 
L 296.014896 190.381659 
L 296.829792 188.908602 
L 297.644688 186.278132 
L 298.459584 175.335366 
L 299.27448 194.274743 
L 300.089376 201.534827 
L 300.904272 199.746126 
L 301.719168 215.528948 
L 302.534064 204.796624 
L 303.348959 200.482655 
L 304.163855 194.906071 
L 304.978751 196.484329 
L 305.793647 194.169542 
L 306.608543 195.7478 
L 307.423439 165.550013 
L 308.238335 163.971715 
L 309.053231 171.442281 
L 309.868127 181.122392 
L 310.683023 193.222571 
L 311.497919 194.906071 
L 312.312815 220.05336 
L 313.127711 225.629944 
L 313.942607 216.475919 
L 314.757503 229.207385 
L 315.572399 212.688035 
L 317.202191 199.640885 
L 318.017087 190.802503 
L 318.831982 194.590387 
L 319.646878 191.32863 
L 320.461774 190.697302 
L 321.27667 208.058422 
L 322.091566 197.115656 
L 322.906462 187.961631 
L 323.721358 201.113982 
L 324.536254 205.112268 
L 325.35115 189.960774 
L 326.166046 184.068506 
L 326.980942 190.065975 
L 328.610734 206.901009 
L 330.240526 184.489391 
L 331.055422 183.752862 
L 331.870318 186.804218 
L 332.685214 186.383333 
L 335.129901 163.55087 
L 335.944797 181.122392 
L 336.759693 177.334509 
L 337.574589 172.073568 
L 338.389485 174.914481 
L 339.204381 171.021396 
L 340.019277 176.808423 
L 340.834173 163.445629 
L 341.649069 163.235187 
L 342.463965 162.183015 
L 343.278861 158.184689 
L 344.093757 160.709958 
L 344.908653 169.443098 
L 345.723549 164.076956 
L 347.353341 168.075242 
L 348.168237 169.337897 
L 348.983133 161.446486 
L 349.798028 160.394274 
L 350.612924 159.552544 
L 351.42782 157.553361 
L 352.242716 145.558423 
L 353.057612 149.135865 
L 353.872508 154.291604 
L 354.687404 195.221714 
L 355.5023 196.58957 
L 356.317196 191.539072 
L 357.946988 208.79495 
L 358.761884 222.157744 
L 359.57678 215.318505 
L 360.391676 211.741064 
L 361.206572 217.002005 
L 362.021468 216.686361 
L 362.836364 216.160275 
L 363.65126 210.162766 
L 364.466156 211.846265 
L 365.281051 203.428769 
L 366.095947 202.69224 
L 366.910843 200.167011 
L 367.725739 206.901009 
L 368.540635 197.220857 
L 369.355531 210.268007 
L 370.170427 210.373208 
L 370.985323 210.268007 
L 371.800219 209.005393 
L 372.615115 207.953181 
L 373.430011 195.116513 
L 374.244907 195.011272 
L 375.059803 195.116513 
L 375.874699 191.539072 
L 377.504491 187.540746 
L 378.319387 190.276417 
L 379.134283 194.379945 
L 379.949179 191.749474 
L 380.764074 194.064301 
L 381.57897 194.274743 
L 382.393866 204.270538 
L 383.208762 219.737676 
L 384.023658 216.370677 
L 384.838554 217.633332 
L 385.65345 220.369003 
L 386.468346 211.004536 
L 387.283242 208.584508 
L 388.098138 213.214121 
L 388.913034 203.954855 
L 389.72793 201.850511 
L 390.542826 217.317648 
L 391.357722 224.788214 
L 392.172618 226.682156 
L 392.987514 216.265476 
L 393.80241 207.742738 
L 394.617306 203.428769 
L 395.432202 206.585325 
L 396.247097 207.111451 
L 397.061993 200.377454 
L 397.876889 197.115656 
L 398.691785 189.013803 
L 399.506681 184.38419 
L 400.321577 177.860595 
L 401.136473 174.914481 
L 401.951369 173.757068 
L 402.766265 176.387538 
L 403.581161 176.282337 
L 404.396057 150.608921 
L 405.210953 152.397662 
L 406.025849 151.34545 
L 406.840745 147.241923 
L 407.655641 146.715837 
L 408.470537 145.768866 
L 409.285433 152.18722 
L 410.100329 149.451548 
L 410.915225 145.874107 
L 411.73012 143.243637 
L 412.545016 145.032337 
L 413.359912 143.769723 
L 414.174808 134.8261 
L 414.989704 130.51213 
L 415.8046 129.354757 
L 416.619496 129.459958 
L 417.434392 130.827814 
L 418.249288 130.827814 
L 419.064184 131.038257 
L 419.87908 135.246985 
L 420.693976 135.983513 
L 421.508872 137.246168 
L 422.323768 137.140927 
L 423.138664 135.352226 
L 423.95356 132.19563 
L 424.768456 133.247842 
L 425.583352 132.406072 
L 426.398248 128.197344 
L 427.213143 129.249516 
L 428.028039 131.3539 
L 428.842935 134.8261 
L 429.657831 141.560138 
L 430.472727 134.615698 
L 431.287623 133.458284 
L 432.102519 136.720042 
L 432.917415 135.036542 
L 434.547207 152.18722 
L 435.362103 146.926279 
L 436.176999 148.083692 
L 436.991895 150.608921 
L 437.806791 135.036542 
L 438.621687 138.824426 
L 439.436583 137.982696 
L 440.251479 136.299197 
L 441.066375 131.985227 
L 441.881271 132.511313 
L 442.696166 140.823569 
L 443.511062 142.401867 
L 444.325958 132.406072 
L 445.140854 133.142601 
L 445.95575 135.66787 
L 447.585542 138.824426 
L 448.400438 138.613984 
L 449.215334 133.879129 
L 450.03023 132.721756 
L 450.845126 132.090429 
L 451.660022 132.300871 
L 452.474918 140.507925 
L 453.289814 144.821895 
L 454.10471 140.402724 
L 454.919606 137.877455 
L 455.734502 136.088755 
L 456.549398 136.720042 
L 457.364294 136.404398 
L 458.179189 107.153582 
L 458.994085 110.731023 
L 459.808981 101.156113 
L 460.623877 101.576958 
L 461.438773 103.681342 
L 462.253669 109.994495 
L 463.068565 108.416196 
L 463.883461 110.415339 
L 464.698357 111.993638 
L 465.513253 115.044993 
L 466.328149 124.304219 
L 467.143045 112.414522 
L 467.957941 104.312669 
L 468.772837 110.099696 
L 469.587733 105.049198 
L 470.402629 128.72343 
L 471.217525 120.411134 
L 472.032421 127.671218 
L 472.847317 121.252904 
L 473.662212 105.785726 
L 474.477108 101.892642 
L 475.292004 104.838755 
L 476.1069 99.788257 
L 476.921796 99.472614 
L 477.736692 106.94314 
L 478.551588 106.522255 
L 479.366484 103.260457 
L 480.18138 101.050872 
L 480.996276 108.942283 
L 481.811172 119.779807 
L 482.626068 113.256252 
L 483.440964 105.575284 
L 484.25586 109.994495 
L 485.070756 96.421259 
L 485.885652 97.683873 
L 487.515444 83.794993 
L 488.33034 78.534053 
L 489.145235 81.690609 
L 489.960131 79.060139 
L 490.775027 83.163666 
L 491.589923 71.27397 
L 492.404819 74.009641 
L 493.219715 69.695671 
L 494.034611 73.799199 
L 494.849507 76.324468 
L 495.664403 74.325285 
L 496.479299 80.00711 
L 497.294195 78.954938 
L 498.109091 80.743638 
L 498.109091 80.743638 
" clip-path="url(#p7bd615af7d)" style="fill: none; stroke: #2ca02c; stroke-width: 1.2; stroke-linecap: square"/>
   </g>
   <g id="line2d_17">
    <path d="M 92.290909 251.092917 
L 93.105805 253.618146 
L 93.920701 257.826914 
L 94.735597 262.877412 
L 95.550493 254.88076 
L 96.365389 253.302502 
L 97.180285 258.247799 
L 97.995181 245.516292 
L 98.810077 244.990206 
L 99.624973 246.778947 
L 100.439869 292.549113 
L 101.254765 308.016291 
L 102.06966 299.388352 
L 102.884556 316.328546 
L 103.699452 307.06932 
L 104.514348 303.702321 
L 105.329244 301.177052 
L 106.14414 294.758698 
L 107.773932 295.705669 
L 108.588828 293.18044 
L 109.403724 295.495227 
L 111.033516 279.817647 
L 111.848412 282.868962 
L 112.663308 283.395088 
L 113.478204 283.710731 
L 114.2931 279.922848 
L 115.107996 276.871493 
L 115.922892 277.50282 
L 116.737788 278.554992 
L 117.552683 277.818464 
L 118.367579 280.028089 
L 119.182475 279.712405 
L 119.997371 286.025558 
L 120.812267 288.340345 
L 121.627163 287.814259 
L 122.442059 295.705669 
L 123.256955 290.54997 
L 124.071851 299.177909 
L 124.886747 299.703995 
L 125.701643 309.804991 
L 126.516539 306.017108 
L 127.331435 304.123166 
L 128.146331 302.650109 
L 128.961227 294.232612 
L 129.776123 296.442198 
L 130.591019 290.234286 
L 131.405915 290.444729 
L 132.220811 290.023844 
L 133.035706 305.175378 
L 134.665498 310.331077 
L 135.480394 310.436319 
L 136.29529 313.592875 
L 137.110186 312.961548 
L 137.925082 317.48596 
L 138.739978 304.228407 
L 139.554874 304.43885 
L 140.36977 305.596263 
L 141.184666 304.964936 
L 141.999562 302.439667 
L 142.814458 302.018822 
L 143.629354 303.176195 
L 144.44425 296.757882 
L 145.259146 297.810054 
L 146.074042 303.491879 
L 146.888938 289.918643 
L 147.703834 292.759556 
L 149.333625 285.394231 
L 150.148521 237.730123 
L 150.963417 236.046624 
L 151.778313 224.156887 
L 152.593209 225.209059 
L 153.408105 229.62827 
L 154.223001 229.417827 
L 155.037897 233.836998 
L 155.852793 240.571036 
L 156.667689 254.459915 
L 157.482585 250.040704 
L 158.297481 238.992737 
L 159.112377 242.991063 
L 159.927273 243.201506 
L 160.742169 240.255352 
L 161.557065 228.7865 
L 162.371961 233.205711 
L 163.186857 236.257066 
L 164.001752 240.781438 
L 164.816648 240.781438 
L 165.631544 242.464977 
L 166.44644 247.93632 
L 167.261336 251.198118 
L 168.076232 240.465794 
L 168.891128 242.149294 
L 169.706024 248.357205 
L 170.52092 244.46412 
L 171.335816 247.725918 
L 172.150712 248.462446 
L 172.965608 253.618146 
L 173.780504 255.932972 
L 174.5954 260.246942 
L 175.410296 261.088671 
L 176.225192 250.987675 
L 177.040088 252.776416 
L 178.66988 262.877412 
L 179.484775 259.19473 
L 180.299671 257.721673 
L 181.114567 249.830262 
L 181.929463 256.353857 
L 182.744359 254.986001 
L 183.559255 258.353 
L 184.374151 261.193913 
L 185.189047 261.088671 
L 186.003943 265.192239 
L 186.818839 274.556706 
L 187.633735 276.871493 
L 188.448631 273.714937 
L 189.263527 274.241023 
L 190.078423 274.346264 
L 190.893319 275.293235 
L 191.708215 275.924522 
L 192.523111 272.978408 
L 193.338007 272.031437 
L 194.152903 262.246085 
L 194.967798 261.404355 
L 195.782694 259.931298 
L 196.59759 250.461589 
L 197.412486 250.882474 
L 198.227382 247.725918 
L 199.042278 243.938034 
L 199.857174 262.246085 
L 200.67207 256.248616 
L 201.486966 258.037356 
L 202.301862 264.245268 
L 203.116758 264.350469 
L 203.931654 254.354674 
L 204.74655 248.146763 
L 205.561446 250.040704 
L 206.376342 248.883291 
L 207.191238 241.202323 
L 208.006134 240.781438 
L 208.82103 250.882474 
L 209.635926 249.61982 
L 210.450821 243.411908 
L 211.265717 253.09206 
L 212.080613 249.61982 
L 212.895509 249.725061 
L 213.710405 246.884148 
L 214.525301 243.517149 
L 215.340197 244.043236 
L 216.155093 250.987675 
L 216.969989 260.98347 
L 217.784885 288.235144 
L 219.414677 315.592018 
L 220.229573 292.023027 
L 221.044469 279.501963 
L 221.859365 279.186319 
L 222.674261 283.500289 
L 223.489157 301.387495 
L 224.304053 285.183788 
L 225.118949 283.710731 
L 225.933844 293.075199 
L 226.74874 279.607204 
L 227.563636 288.235144 
L 229.193428 283.921174 
L 230.008324 288.550787 
L 230.82322 278.660233 
L 231.638116 275.293235 
L 232.453012 275.819321 
L 233.267908 283.921174 
L 234.082804 277.292378 
L 234.8977 279.501963 
L 235.712596 279.817647 
L 237.342388 279.081118 
L 238.157284 285.920317 
L 238.97218 284.342059 
L 239.787076 275.71412 
L 240.601972 272.031437 
L 242.231763 250.777233 
L 243.046659 249.514618 
L 243.861555 248.988532 
L 244.676451 242.149294 
L 245.491347 245.726735 
L 247.121139 248.041562 
L 247.936035 250.251147 
L 248.750931 246.778947 
L 249.565827 241.518007 
L 250.380723 240.360593 
L 251.195619 238.782295 
L 252.010515 244.779764 
L 252.825411 236.046624 
L 253.640307 185.120718 
L 254.455203 170.600511 
L 255.270099 176.492779 
L 256.084995 173.441424 
L 256.89989 179.964979 
L 257.714786 187.540746 
L 258.529682 181.227593 
L 259.344578 171.652683 
L 260.159474 169.022213 
L 260.97437 169.232656 
L 261.789266 163.55087 
L 262.604162 171.547482 
L 263.419058 178.386721 
L 264.233954 176.913624 
L 265.04885 180.385864 
L 265.863746 185.436362 
L 266.678642 175.651009 
L 267.493538 184.068506 
L 268.308434 174.80928 
L 269.12333 173.862309 
L 269.938226 171.231839 
L 270.753122 171.231839 
L 271.568018 170.600511 
L 272.382913 176.492779 
L 273.197809 173.96751 
L 274.012705 169.548339 
L 274.827601 160.394274 
L 275.642497 160.499515 
L 276.457393 171.126597 
L 277.272289 153.134191 
L 278.087185 154.186363 
L 278.902081 154.396805 
L 279.716977 162.919543 
L 280.531873 159.868188 
L 281.346769 172.599654 
L 282.161665 161.236044 
L 282.976561 160.604716 
L 283.791457 150.819364 
L 284.606353 155.343776 
L 285.421249 171.863126 
L 286.236145 164.497801 
L 287.865936 154.081161 
L 288.680832 155.65946 
L 289.495728 152.713306 
L 290.310624 146.400193 
L 291.12552 148.925422 
L 291.940416 157.658603 
L 292.755312 164.813485 
L 293.570208 162.183015 
L 294.385104 172.704896 
L 295.2 192.486043 
L 296.014896 190.802503 
L 296.829792 191.118187 
L 297.644688 186.067689 
L 298.459584 198.062627 
L 299.27448 182.595449 
L 300.089376 204.901826 
L 300.904272 209.426238 
L 301.719168 207.00621 
L 302.534064 210.268007 
L 303.348959 191.223388 
L 304.163855 196.484329 
L 304.978751 192.486043 
L 305.793647 202.481798 
L 306.608543 193.643416 
L 307.423439 161.76213 
L 308.238335 165.760456 
L 309.053231 183.752862 
L 309.868127 192.591244 
L 310.683023 194.274743 
L 311.497919 213.635006 
L 312.312815 221.526417 
L 313.127711 222.894272 
L 313.942607 218.36986 
L 314.757503 218.580303 
L 315.572399 210.057565 
L 316.387295 203.849653 
L 317.202191 189.855573 
L 318.017087 192.2756 
L 318.831982 196.168685 
L 319.646878 187.435505 
L 320.461774 202.902683 
L 321.27667 201.008741 
L 322.091566 193.222571 
L 322.906462 201.640068 
L 323.721358 206.059239 
L 324.536254 188.172033 
L 325.35115 184.278949 
L 326.166046 190.592101 
L 326.980942 193.9591 
L 327.795838 204.480981 
L 328.610734 197.957386 
L 329.42563 185.436362 
L 330.240526 193.748657 
L 331.055422 183.016334 
L 331.870318 181.964162 
L 332.685214 177.544951 
L 333.50011 169.548339 
L 334.315005 166.286542 
L 335.129901 178.597123 
L 335.944797 174.704038 
L 336.759693 172.494453 
L 337.574589 173.546625 
L 338.389485 171.021396 
L 339.204381 178.071037 
L 340.019277 165.760456 
L 340.834173 162.183015 
L 341.649069 160.289073 
L 342.463965 156.711632 
L 343.278861 158.184689 
L 344.093757 167.338714 
L 344.908653 161.446486 
L 345.723549 168.390926 
L 346.538445 168.811811 
L 347.353341 169.969184 
L 348.168237 166.391743 
L 348.983133 159.026458 
L 349.798028 158.921217 
L 350.612924 155.869862 
L 351.42782 147.347164 
L 352.242716 148.083692 
L 353.057612 156.501189 
L 353.872508 154.502046 
L 354.687404 196.58957 
L 355.5023 193.11733 
L 356.317196 200.167011 
L 357.132092 205.427952 
L 357.946988 216.370677 
L 358.761884 216.686361 
L 359.57678 208.900152 
L 360.391676 217.633332 
L 361.206572 216.686361 
L 362.021468 215.949833 
L 362.836364 211.214978 
L 363.65126 214.581977 
L 364.466156 204.586182 
L 365.281051 204.270538 
L 366.095947 199.430483 
L 366.910843 203.954855 
L 367.725739 196.063444 
L 368.540635 209.952364 
L 369.355531 206.795767 
L 370.170427 211.951507 
L 370.985323 208.79495 
L 371.800219 215.002862 
L 372.615115 198.588713 
L 373.430011 193.012129 
L 374.244907 195.432157 
L 375.059803 190.907745 
L 375.874699 183.752862 
L 376.689595 185.331161 
L 377.504491 189.224245 
L 378.319387 196.484329 
L 379.134283 192.906888 
L 379.949179 193.222571 
L 380.764074 193.853859 
L 381.57897 198.273069 
L 382.393866 199.746126 
L 383.208762 213.845448 
L 384.023658 217.107206 
L 384.838554 218.580303 
L 385.65345 211.214978 
L 386.468346 213.95065 
L 387.283242 214.581977 
L 388.098138 202.797481 
L 388.913034 204.901826 
L 389.72793 195.221714 
L 390.542826 217.107206 
L 391.357722 231.837855 
L 392.987514 209.63668 
L 393.80241 203.007924 
L 394.617306 203.113125 
L 395.432202 203.007924 
L 396.247097 200.798298 
L 397.061993 200.798298 
L 397.876889 191.118187 
L 398.691785 188.066832 
L 399.506681 181.543277 
L 400.321577 178.386721 
L 401.136473 175.966653 
L 401.951369 176.387538 
L 402.766265 173.651866 
L 403.581161 182.805892 
L 404.396057 153.134191 
L 405.210953 154.291604 
L 406.025849 146.189751 
L 406.840745 144.506251 
L 407.655641 144.190608 
L 408.470537 150.188077 
L 409.285433 149.977634 
L 410.100329 145.032337 
L 410.915225 146.084509 
L 411.73012 146.084509 
L 413.359912 137.561812 
L 414.174808 131.564343 
L 414.989704 130.51213 
L 415.8046 129.039074 
L 416.619496 130.933015 
L 417.434392 127.986901 
L 418.249288 131.774785 
L 419.064184 129.880843 
L 419.87908 137.035726 
L 420.693976 135.773071 
L 421.508872 135.352226 
L 422.323768 135.141784 
L 423.138664 134.615698 
L 423.95356 132.300871 
L 424.768456 131.669544 
L 425.583352 129.354757 
L 426.398248 130.827814 
L 427.213143 130.091286 
L 428.028039 132.300871 
L 428.842935 136.825283 
L 429.657831 135.457427 
L 430.472727 134.615698 
L 431.287623 135.246985 
L 432.102519 134.720899 
L 432.917415 137.140927 
L 433.732311 149.977634 
L 434.547207 141.139253 
L 435.362103 146.610636 
L 436.176999 149.451548 
L 436.991895 139.666196 
L 437.806791 139.034868 
L 438.621687 142.401867 
L 439.436583 143.664482 
L 440.251479 133.668727 
L 441.066375 133.0374 
L 441.881271 137.140927 
L 442.696166 142.717511 
L 443.511062 131.669544 
L 444.325958 130.827814 
L 445.140854 137.45657 
L 445.95575 135.352226 
L 447.585542 139.14007 
L 448.400438 134.931341 
L 449.215334 133.879129 
L 450.03023 133.247842 
L 450.845126 130.722573 
L 451.660022 139.666196 
L 452.474918 140.507925 
L 453.289814 142.507108 
L 454.10471 137.246168 
L 454.919606 139.350512 
L 455.734502 134.720899 
L 456.549398 136.088755 
L 457.364294 139.034868 
L 458.179189 113.677137 
L 458.994085 99.577815 
L 459.808981 99.683016 
L 460.623877 103.4709 
L 461.438773 109.047524 
L 462.253669 111.467552 
L 463.068565 110.941466 
L 463.883461 112.20408 
L 464.698357 116.097165 
L 465.513253 118.411991 
L 466.328149 123.672932 
L 467.143045 105.680525 
L 467.957941 105.154399 
L 468.772837 108.310995 
L 469.587733 123.778133 
L 470.402629 120.411134 
L 471.217525 129.880843 
L 472.847317 113.782338 
L 473.662212 103.365698 
L 474.477108 106.417054 
L 475.292004 101.050872 
L 476.1069 98.3152 
L 476.921796 105.890927 
L 477.736692 104.523112 
L 478.551588 103.681342 
L 479.366484 98.630844 
L 480.18138 107.364024 
L 480.996276 118.517193 
L 481.811172 117.991107 
L 482.626068 107.784869 
L 483.440964 110.625782 
L 484.25586 95.68473 
L 485.070756 99.472614 
L 485.885652 89.371578 
L 486.700548 87.267233 
L 487.515444 78.744495 
L 488.33034 81.901052 
L 489.145235 82.953224 
L 489.960131 85.899378 
L 490.775027 72.010498 
L 491.589923 72.852228 
L 493.219715 72.747026 
L 494.034611 76.008784 
L 494.849507 75.587939 
L 495.664403 78.639254 
L 496.479299 79.586225 
L 497.294195 87.582877 
L 498.109091 82.953224 
L 498.109091 82.953224 
" clip-path="url(#p7bd615af7d)" style="fill: none; stroke: #d62728; stroke-width: 1.2; stroke-linecap: square"/>
   </g>
   <g id="line2d_18">
    <path d="M 92.290909 312.262949 
L 93.105805 314.473137 
L 93.920701 318.156662 
L 94.735597 322.577198 
L 95.550493 315.578211 
L 96.365389 314.196828 
L 97.180285 318.525288 
L 97.995181 307.381953 
L 98.810077 306.921493 
L 99.624973 308.487147 
L 100.439869 348.547392 
L 101.254765 362.084865 
L 102.06966 354.533221 
L 102.884556 369.36 
L 103.699452 361.255979 
L 104.514348 358.309023 
L 105.329244 356.098835 
L 106.14414 350.48119 
L 107.773932 351.309875 
L 108.588828 349.099808 
L 109.403724 351.125803 
L 111.033516 337.404097 
L 111.848412 337.218581 
L 112.663308 337.682373 
L 113.478204 337.960487 
L 114.2931 334.621625 
L 115.107996 331.931992 
L 115.922892 332.488422 
L 116.737788 333.415846 
L 117.552683 332.766657 
L 118.367579 334.714304 
L 119.182475 334.436189 
L 119.997371 340.001012 
L 120.812267 342.041417 
L 121.627163 341.577705 
L 122.442059 348.533665 
L 123.256955 343.989023 
L 124.071851 351.594412 
L 124.886747 352.058204 
L 125.701643 360.96189 
L 126.516539 357.622907 
L 127.331435 355.953617 
L 128.146331 354.655039 
L 128.961227 347.235368 
L 129.776123 349.182974 
L 130.591019 343.710748 
L 131.405915 343.896265 
L 132.220811 343.525311 
L 133.035706 356.881041 
L 134.665498 361.425722 
L 135.480394 361.51844 
L 136.29529 364.300872 
L 137.110186 363.744362 
L 137.925082 367.732493 
L 138.739978 356.046295 
L 139.554874 356.231772 
L 140.36977 357.252074 
L 141.184666 356.695564 
L 141.999562 354.469682 
L 142.814458 354.098609 
L 143.629354 355.118871 
L 144.44425 349.461169 
L 145.259146 350.388632 
L 146.074042 355.397146 
L 146.888938 343.432633 
L 147.703834 345.93679 
L 149.333625 339.444462 
L 150.148521 297.429989 
L 150.963417 295.945934 
L 151.778313 285.465395 
L 152.593209 286.392899 
L 153.408105 290.288392 
L 154.223001 290.102835 
L 155.037897 293.998208 
L 155.852793 299.934145 
L 156.667689 312.176613 
L 157.482585 308.281441 
L 158.297481 298.542769 
L 159.112377 302.067228 
L 159.927273 302.252705 
L 160.742169 299.65575 
L 161.557065 289.546325 
L 162.371961 293.441617 
L 163.186857 296.131411 
L 164.001752 297.251496 
L 164.816648 297.251496 
L 165.631544 298.745104 
L 166.44644 303.599408 
L 167.261336 306.493303 
L 168.076232 296.971455 
L 168.891128 298.465102 
L 169.706024 303.97281 
L 170.52092 300.518833 
L 171.335816 303.412848 
L 172.150712 304.06601 
L 172.965608 308.640273 
L 173.780504 310.694003 
L 174.5954 314.521383 
L 175.410296 315.268226 
L 176.225192 306.306622 
L 177.040088 307.89355 
L 178.66988 316.855154 
L 179.484775 313.587858 
L 180.299671 312.281052 
L 181.114567 305.279777 
L 181.929463 311.067445 
L 182.744359 309.853839 
L 183.559255 312.841134 
L 184.374151 315.361466 
L 185.189047 315.268226 
L 186.003943 318.908764 
L 186.818839 327.216885 
L 187.633735 329.270696 
L 188.448631 326.470122 
L 189.263527 326.937045 
L 190.078423 327.030325 
L 190.893319 327.870489 
L 191.708215 328.430492 
L 192.523111 325.816759 
L 193.338007 324.976675 
L 194.152903 316.295031 
L 194.967798 315.548268 
L 195.782694 314.241462 
L 196.59759 305.839859 
L 197.412486 306.213301 
L 198.227382 303.412848 
L 199.042278 300.05207 
L 199.857174 316.295031 
L 200.67207 310.974125 
L 201.486966 312.561053 
L 202.301862 318.06876 
L 203.116758 318.162161 
L 203.931654 309.293716 
L 204.74655 303.786089 
L 205.561446 305.466498 
L 206.376342 304.439612 
L 207.191238 297.624938 
L 208.006134 297.251496 
L 208.82103 306.213301 
L 209.635926 305.093016 
L 210.450821 299.585348 
L 211.265717 308.173551 
L 212.080613 305.093016 
L 212.895509 305.186296 
L 213.710405 302.665883 
L 214.525301 299.678668 
L 215.340197 297.235561 
L 216.155093 303.437412 
L 216.969989 312.364097 
L 217.784885 336.701325 
L 219.414677 361.132395 
L 220.229573 340.084017 
L 221.044469 328.90207 
L 221.859365 328.620062 
L 222.674261 332.472768 
L 223.489157 348.447047 
L 224.304053 333.97625 
L 225.118949 332.660694 
L 225.933844 341.023603 
L 226.74874 328.996033 
L 227.563636 336.701325 
L 229.193428 332.848779 
L 230.008324 336.983092 
L 230.82322 328.15033 
L 231.638116 325.143528 
L 232.453012 325.613381 
L 233.267908 332.848779 
L 234.082804 326.928776 
L 234.8977 328.90207 
L 235.712596 329.183958 
L 237.342388 328.52626 
L 238.157284 334.634068 
L 238.97218 333.22463 
L 239.787076 325.519458 
L 240.601972 322.230487 
L 242.231763 303.249366 
L 243.046659 302.121775 
L 243.861555 301.652003 
L 244.676451 295.544155 
L 245.491347 298.738962 
L 247.121139 300.80634 
L 247.936035 302.779513 
L 248.750931 299.678709 
L 249.565827 294.98042 
L 250.380723 293.946831 
L 251.195619 292.537152 
L 252.010515 297.893219 
L 252.825411 290.094286 
L 253.640307 244.614677 
L 254.455203 231.647361 
L 255.270099 236.909506 
L 256.084995 234.184471 
L 256.89989 240.010391 
L 257.714786 246.775897 
L 258.529682 241.137942 
L 259.344578 232.586987 
L 260.159474 230.237842 
L 260.97437 230.425768 
L 261.789266 225.351669 
L 262.604162 232.493065 
L 263.419058 238.600832 
L 264.233954 237.285356 
L 265.04885 240.386201 
L 265.863746 244.896485 
L 266.678642 236.157685 
L 267.493538 240.319974 
L 268.308434 231.995356 
L 269.12333 231.143953 
L 269.938226 228.779034 
L 270.753122 228.779034 
L 271.568018 228.211406 
L 272.382913 233.508872 
L 273.197809 231.238558 
L 274.012705 227.265398 
L 274.827601 219.035265 
L 275.642497 219.129789 
L 276.457393 228.684349 
L 277.272289 212.508017 
L 278.087185 213.453784 
L 278.902081 213.643074 
L 279.716977 221.305579 
L 280.531873 218.562201 
L 281.346769 230.008656 
L 282.161665 219.792023 
L 282.976561 219.224555 
L 283.791457 210.426632 
L 284.606353 214.494356 
L 285.421249 229.346503 
L 286.236145 222.72449 
L 287.865936 213.359259 
L 288.680832 214.77817 
L 289.495728 212.129558 
L 290.310624 206.453553 
L 291.12552 208.723866 
L 291.940416 216.575621 
L 292.755312 223.008424 
L 293.570208 220.643345 
L 294.385104 230.103341 
L 295.2 247.888075 
L 296.014896 246.374398 
L 296.829792 246.658253 
L 297.644688 242.117505 
L 298.459584 252.901887 
L 299.27448 238.995668 
L 300.089376 259.050715 
L 300.904272 263.118439 
L 301.719168 260.942771 
L 302.534064 263.875238 
L 303.348959 246.752817 
L 304.163855 251.482775 
L 304.978751 247.888075 
L 305.793647 256.874926 
L 306.608543 248.928607 
L 307.423439 220.265046 
L 308.238335 223.859707 
L 309.053231 240.03624 
L 309.868127 247.982639 
L 310.683023 249.496115 
L 311.497919 266.90247 
L 312.312815 273.997306 
L 313.127711 275.227128 
L 313.942607 271.159484 
L 314.757503 271.348613 
L 315.572399 263.686068 
L 316.387295 254.634715 
L 317.202191 241.962573 
L 318.017087 244.153976 
L 318.831982 247.679398 
L 319.646878 239.77121 
L 320.461774 253.777171 
L 321.27667 252.062044 
L 322.091566 245.011479 
L 322.906462 252.633887 
L 323.721358 256.635584 
L 324.536254 240.438019 
L 325.35115 236.912837 
L 326.166046 242.629583 
L 326.980942 245.678529 
L 327.795838 255.206237 
L 328.610734 249.299078 
L 329.42563 237.960835 
L 330.240526 245.487995 
L 331.055422 235.769552 
L 331.870318 234.816802 
L 332.685214 230.815064 
L 333.50011 223.573845 
L 334.315005 220.620266 
L 335.129901 231.767815 
L 335.944797 228.242513 
L 336.759693 226.241604 
L 337.574589 227.194475 
L 338.389485 224.907785 
L 339.204381 231.291379 
L 340.019277 220.14383 
L 340.834173 216.904309 
L 341.649069 215.189342 
L 342.463965 211.949901 
L 343.278861 213.2838 
L 344.093757 221.573017 
L 344.908653 216.23742 
L 345.723549 222.525848 
L 346.538445 222.906996 
L 347.353341 223.954873 
L 348.168237 220.715433 
L 348.983133 214.046057 
L 349.798028 213.95073 
L 350.612924 211.187564 
L 351.42782 203.47003 
L 352.242716 204.13708 
L 353.057612 211.759287 
L 353.872508 209.949153 
L 354.687404 248.060507 
L 355.5023 244.916353 
L 356.317196 251.299867 
L 357.132092 256.063902 
L 357.946988 265.972758 
L 358.761884 266.25862 
L 359.57678 259.208096 
L 360.391676 267.116123 
L 361.206572 266.25862 
L 362.021468 265.59177 
L 362.836364 261.304251 
L 363.65126 264.352957 
L 364.466156 255.301565 
L 365.281051 255.015623 
L 366.095947 250.632897 
L 366.910843 254.729842 
L 367.725739 247.584031 
L 368.540635 256.794771 
L 369.355531 253.91645 
L 370.170427 258.617669 
L 370.985323 255.739348 
L 371.800219 261.400101 
L 372.615115 246.432678 
L 373.430011 241.347662 
L 374.244907 243.554237 
L 375.059803 239.428835 
L 375.874699 232.904397 
L 376.689595 234.343657 
L 377.504491 237.893644 
L 378.319387 244.513771 
L 379.134283 241.251692 
L 379.949179 241.53948 
L 380.764074 242.115096 
L 381.57897 246.14493 
L 382.393866 247.488102 
L 383.208762 260.344758 
L 384.023658 263.318888 
L 384.838554 264.662099 
L 385.65345 257.946163 
L 386.468346 260.440567 
L 387.283242 261.016303 
L 388.098138 250.270493 
L 388.913034 252.189401 
L 389.72793 243.362418 
L 390.542826 263.318888 
L 391.357722 276.75124 
L 392.987514 256.506943 
L 393.80241 250.462392 
L 394.617306 250.558321 
L 395.432202 250.462392 
L 396.247097 248.447435 
L 397.061993 248.447435 
L 397.876889 239.620653 
L 398.691785 236.838141 
L 399.506681 230.8896 
L 400.321577 228.011199 
L 401.136473 225.804583 
L 401.951369 226.188341 
L 402.766265 223.693697 
L 403.581161 232.041033 
L 404.396057 204.98455 
L 405.210953 206.039973 
L 406.025849 198.65201 
L 406.840745 197.116981 
L 407.655641 196.829273 
L 408.470537 202.298087 
L 409.285433 202.106148 
L 410.100329 197.596667 
L 410.915225 198.556161 
L 411.73012 198.556161 
L 413.359912 190.784682 
L 414.174808 185.315788 
L 414.989704 184.356334 
L 415.8046 183.013083 
L 416.619496 184.740092 
L 417.434392 182.053709 
L 418.249288 185.507647 
L 419.064184 183.780638 
L 419.87908 186.869963 
L 420.693976 185.711506 
L 421.508872 185.325381 
L 422.323768 185.132318 
L 423.138664 184.649501 
L 423.95356 182.525529 
L 424.768456 181.946421 
L 425.583352 179.822369 
L 426.398248 181.173969 
L 427.213143 180.498209 
L 428.028039 182.525529 
L 428.842935 186.676941 
L 429.657831 185.421912 
L 430.472727 184.649501 
L 431.287623 185.228809 
L 432.102519 184.746072 
L 432.917415 186.966535 
L 433.732311 198.744849 
L 434.547207 190.635089 
L 435.362103 195.655483 
L 436.176999 198.262232 
L 436.991895 189.283529 
L 437.806791 188.7043 
L 438.621687 191.793786 
L 439.436583 192.952203 
L 440.251479 183.780638 
L 441.066375 183.201409 
L 441.881271 186.966535 
L 442.696166 192.0833 
L 443.511062 181.946421 
L 444.325958 181.173969 
L 445.140854 187.256169 
L 445.95575 185.325381 
L 447.585542 188.800872 
L 448.400438 184.939095 
L 449.215334 183.973741 
L 450.03023 183.394472 
L 450.845126 181.077478 
L 451.660022 189.283529 
L 452.474918 190.055941 
L 453.289814 191.890358 
L 454.10471 187.063106 
L 454.919606 188.994015 
L 455.734502 184.746072 
L 456.549398 186.001181 
L 457.364294 188.7043 
L 458.179189 165.437427 
L 458.994085 152.500736 
L 459.808981 152.597348 
L 460.623877 156.072839 
L 461.438773 161.189644 
L 462.253669 163.410187 
L 463.068565 162.92749 
L 463.883461 164.085867 
L 464.698357 167.65797 
L 465.513253 169.781981 
L 466.328149 174.609072 
L 467.143045 158.100279 
L 467.957941 157.617542 
L 468.772837 160.513885 
L 469.587733 174.705524 
L 470.402629 171.616198 
L 471.217525 180.305147 
L 472.032421 169.224909 
L 472.847317 161.643643 
L 473.662212 152.02129 
L 474.477108 154.840006 
L 475.292004 149.88307 
L 476.1069 147.355994 
L 476.921796 154.354058 
L 477.736692 153.090561 
L 478.551588 152.313052 
L 479.366484 147.647595 
L 480.18138 155.714729 
L 480.996276 166.017458 
L 481.811172 165.53151 
L 482.626068 156.103665 
L 483.440964 158.727833 
L 484.25586 144.926093 
L 485.070756 148.425145 
L 485.885652 139.094353 
L 486.700548 137.1506 
L 487.515444 129.277733 
L 488.33034 132.193502 
L 489.145235 133.165559 
L 489.960131 135.887022 
L 490.775027 123.057258 
L 491.589923 123.834767 
L 493.219715 123.737634 
L 494.034611 126.750658 
L 494.849507 126.361843 
L 495.664403 129.180479 
L 496.479299 130.055202 
L 497.294195 137.442201 
L 498.109091 133.165559 
L 498.109091 133.165559 
" clip-path="url(#p7bd615af7d)" style="fill: none; stroke: #9467bd; stroke-width: 1.2; stroke-linecap: square"/>
   </g>
   <g id="patch_3">
    <path d="M 72 384.48 
L 72 51.84 
" style="fill: none; stroke: #000000; stroke-width: 0.8; stroke-linejoin: miter; stroke-linecap: square"/>
   </g>
   <g id="patch_4">
    <path d="M 518.4 384.48 
L 518.4 51.84 
" style="fill: none; stroke: #000000; stroke-width: 0.8; stroke-linejoin: miter; stroke-linecap: square"/>
   </g>
   <g id="patch_5">
    <path d="M 72 384.48 
L 518.4 384.48 
" style="fill: none; stroke: #000000; stroke-width: 0.8; stroke-linejoin: miter; stroke-linecap: square"/>
   </g>
   <g id="patch_6">
    <path d="M 72 51.84 
L 518.4 51.84 
" style="fill: none; stroke: #000000; stroke-width: 0.8; stroke-linejoin: miter; stroke-linecap: square"/>
   </g>
   <g id="text_16">
    <!-- Time series of MSFT stock price from 2015-2016 -->
    <g transform="translate(150.103125 45.84)scale(0.12 -0.12)">
     <defs>
      <path id="DejaVuSans-54" d="M -19 4666 
L 3928 4666 
L 3928 4134 
L 2272 4134 
L 2272 0 
L 1638 0 
L 1638 4134 
L -19 4134 
L -19 4666 
z
" transform="scale(0.015625)"/>
      <path id="DejaVuSans-6d" d="M 3328 2828 
Q 3544 3216 3844 3400 
Q 4144 3584 4550 3584 
Q 5097 3584 5394 3201 
Q 5691 2819 5691 2113 
L 5691 0 
L 5113 0 
L 5113 2094 
Q 5113 2597 4934 2840 
Q 4756 3084 4391 3084 
Q 3944 3084 3684 2787 
Q 3425 2491 3425 1978 
L 3425 0 
L 2847 0 
L 2847 2094 
Q 2847 2600 2669 2842 
Q 2491 3084 2119 3084 
Q 1678 3084 1418 2786 
Q 1159 2488 1159 1978 
L 1159 0 
L 581 0 
L 581 3500 
L 1159 3500 
L 1159 2956 
Q 1356 3278 1631 3431 
Q 1906 3584 2284 3584 
Q 2666 3584 2933 3390 
Q 3200 3197 3328 2828 
z
" transform="scale(0.015625)"/>
      <path id="DejaVuSans-73" d="M 2834 3397 
L 2834 2853 
Q 2591 2978 2328 3040 
Q 2066 3103 1784 3103 
Q 1356 3103 1142 2972 
Q 928 2841 928 2578 
Q 928 2378 1081 2264 
Q 1234 2150 1697 2047 
L 1894 2003 
Q 2506 1872 2764 1633 
Q 3022 1394 3022 966 
Q 3022 478 2636 193 
Q 2250 -91 1575 -91 
Q 1294 -91 989 -36 
Q 684 19 347 128 
L 347 722 
Q 666 556 975 473 
Q 1284 391 1588 391 
Q 1994 391 2212 530 
Q 2431 669 2431 922 
Q 2431 1156 2273 1281 
Q 2116 1406 1581 1522 
L 1381 1569 
Q 847 1681 609 1914 
Q 372 2147 372 2553 
Q 372 3047 722 3315 
Q 1072 3584 1716 3584 
Q 2034 3584 2315 3537 
Q 2597 3491 2834 3397 
z
" transform="scale(0.015625)"/>
      <path id="DejaVuSans-6f" d="M 1959 3097 
Q 1497 3097 1228 2736 
Q 959 2375 959 1747 
Q 959 1119 1226 758 
Q 1494 397 1959 397 
Q 2419 397 2687 759 
Q 2956 1122 2956 1747 
Q 2956 2369 2687 2733 
Q 2419 3097 1959 3097 
z
M 1959 3584 
Q 2709 3584 3137 3096 
Q 3566 2609 3566 1747 
Q 3566 888 3137 398 
Q 2709 -91 1959 -91 
Q 1206 -91 779 398 
Q 353 888 353 1747 
Q 353 2609 779 3096 
Q 1206 3584 1959 3584 
z
" transform="scale(0.015625)"/>
      <path id="DejaVuSans-66" d="M 2375 4863 
L 2375 4384 
L 1825 4384 
Q 1516 4384 1395 4259 
Q 1275 4134 1275 3809 
L 1275 3500 
L 2222 3500 
L 2222 3053 
L 1275 3053 
L 1275 0 
L 697 0 
L 697 3053 
L 147 3053 
L 147 3500 
L 697 3500 
L 697 3744 
Q 697 4328 969 4595 
Q 1241 4863 1831 4863 
L 2375 4863 
z
" transform="scale(0.015625)"/>
      <path id="DejaVuSans-4d" d="M 628 4666 
L 1569 4666 
L 2759 1491 
L 3956 4666 
L 4897 4666 
L 4897 0 
L 4281 0 
L 4281 4097 
L 3078 897 
L 2444 897 
L 1241 4097 
L 1241 0 
L 628 0 
L 628 4666 
z
" transform="scale(0.015625)"/>
      <path id="DejaVuSans-46" d="M 628 4666 
L 3309 4666 
L 3309 4134 
L 1259 4134 
L 1259 2759 
L 3109 2759 
L 3109 2228 
L 1259 2228 
L 1259 0 
L 628 0 
L 628 4666 
z
" transform="scale(0.015625)"/>
      <path id="DejaVuSans-6b" d="M 581 4863 
L 1159 4863 
L 1159 1991 
L 2875 3500 
L 3609 3500 
L 1753 1863 
L 3688 0 
L 2938 0 
L 1159 1709 
L 1159 0 
L 581 0 
L 581 4863 
z
" transform="scale(0.015625)"/>
      <path id="DejaVuSans-70" d="M 1159 525 
L 1159 -1331 
L 581 -1331 
L 581 3500 
L 1159 3500 
L 1159 2969 
Q 1341 3281 1617 3432 
Q 1894 3584 2278 3584 
Q 2916 3584 3314 3078 
Q 3713 2572 3713 1747 
Q 3713 922 3314 415 
Q 2916 -91 2278 -91 
Q 1894 -91 1617 61 
Q 1341 213 1159 525 
z
M 3116 1747 
Q 3116 2381 2855 2742 
Q 2594 3103 2138 3103 
Q 1681 3103 1420 2742 
Q 1159 2381 1159 1747 
Q 1159 1113 1420 752 
Q 1681 391 2138 391 
Q 2594 391 2855 752 
Q 3116 1113 3116 1747 
z
" transform="scale(0.015625)"/>
      <path id="DejaVuSans-2d" d="M 313 2009 
L 1997 2009 
L 1997 1497 
L 313 1497 
L 313 2009 
z
" transform="scale(0.015625)"/>
     </defs>
     <use xlink:href="#DejaVuSans-54"/>
     <use xlink:href="#DejaVuSans-69" x="57.958984"/>
     <use xlink:href="#DejaVuSans-6d" x="85.742188"/>
     <use xlink:href="#DejaVuSans-65" x="183.154297"/>
     <use xlink:href="#DejaVuSans-20" x="244.677734"/>
     <use xlink:href="#DejaVuSans-73" x="276.464844"/>
     <use xlink:href="#DejaVuSans-65" x="328.564453"/>
     <use xlink:href="#DejaVuSans-72" x="390.087891"/>
     <use xlink:href="#DejaVuSans-69" x="431.201172"/>
     <use xlink:href="#DejaVuSans-65" x="458.984375"/>
     <use xlink:href="#DejaVuSans-73" x="520.507812"/>
     <use xlink:href="#DejaVuSans-20" x="572.607422"/>
     <use xlink:href="#DejaVuSans-6f" x="604.394531"/>
     <use xlink:href="#DejaVuSans-66" x="665.576172"/>
     <use xlink:href="#DejaVuSans-20" x="700.78125"/>
     <use xlink:href="#DejaVuSans-4d" x="732.568359"/>
     <use xlink:href="#DejaVuSans-53" x="818.847656"/>
     <use xlink:href="#DejaVuSans-46" x="882.324219"/>
     <use xlink:href="#DejaVuSans-54" x="938.09375"/>
     <use xlink:href="#DejaVuSans-20" x="999.177734"/>
     <use xlink:href="#DejaVuSans-73" x="1030.964844"/>
     <use xlink:href="#DejaVuSans-74" x="1083.064453"/>
     <use xlink:href="#DejaVuSans-6f" x="1122.273438"/>
     <use xlink:href="#DejaVuSans-63" x="1183.455078"/>
     <use xlink:href="#DejaVuSans-6b" x="1238.435547"/>
     <use xlink:href="#DejaVuSans-20" x="1296.345703"/>
     <use xlink:href="#DejaVuSans-70" x="1328.132812"/>
     <use xlink:href="#DejaVuSans-72" x="1391.609375"/>
     <use xlink:href="#DejaVuSans-69" x="1432.722656"/>
     <use xlink:href="#DejaVuSans-63" x="1460.505859"/>
     <use xlink:href="#DejaVuSans-65" x="1515.486328"/>
     <use xlink:href="#DejaVuSans-20" x="1577.009766"/>
     <use xlink:href="#DejaVuSans-66" x="1608.796875"/>
     <use xlink:href="#DejaVuSans-72" x="1644.001953"/>
     <use xlink:href="#DejaVuSans-6f" x="1682.865234"/>
     <use xlink:href="#DejaVuSans-6d" x="1744.046875"/>
     <use xlink:href="#DejaVuSans-20" x="1841.458984"/>
     <use xlink:href="#DejaVuSans-32" x="1873.246094"/>
     <use xlink:href="#DejaVuSans-30" x="1936.869141"/>
     <use xlink:href="#DejaVuSans-31" x="2000.492188"/>
     <use xlink:href="#DejaVuSans-35" x="2064.115234"/>
     <use xlink:href="#DejaVuSans-2d" x="2127.738281"/>
     <use xlink:href="#DejaVuSans-32" x="2163.822266"/>
     <use xlink:href="#DejaVuSans-30" x="2227.445312"/>
     <use xlink:href="#DejaVuSans-31" x="2291.068359"/>
     <use xlink:href="#DejaVuSans-36" x="2354.691406"/>
    </g>
   </g>
   <g id="legend_1">
    <g id="patch_7">
     <path d="M 79 133.230625 
L 157.2125 133.230625 
Q 159.2125 133.230625 159.2125 131.230625 
L 159.2125 58.84 
Q 159.2125 56.84 157.2125 56.84 
L 79 56.84 
Q 77 56.84 77 58.84 
L 77 131.230625 
Q 77 133.230625 79 133.230625 
z
" style="fill: #ffffff; opacity: 0.8; stroke: #cccccc; stroke-linejoin: miter"/>
    </g>
    <g id="line2d_19">
     <path d="M 81 64.938437 
L 91 64.938437 
L 101 64.938437 
" style="fill: none; stroke: #1f77b4; stroke-width: 1.2; stroke-linecap: square"/>
    </g>
    <g id="text_17">
     <!-- High -->
     <g transform="translate(109 68.438437)scale(0.1 -0.1)">
      <defs>
       <path id="DejaVuSans-48" d="M 628 4666 
L 1259 4666 
L 1259 2753 
L 3553 2753 
L 3553 4666 
L 4184 4666 
L 4184 0 
L 3553 0 
L 3553 2222 
L 1259 2222 
L 1259 0 
L 628 0 
L 628 4666 
z
" transform="scale(0.015625)"/>
       <path id="DejaVuSans-67" d="M 2906 1791 
Q 2906 2416 2648 2759 
Q 2391 3103 1925 3103 
Q 1463 3103 1205 2759 
Q 947 2416 947 1791 
Q 947 1169 1205 825 
Q 1463 481 1925 481 
Q 2391 481 2648 825 
Q 2906 1169 2906 1791 
z
M 3481 434 
Q 3481 -459 3084 -895 
Q 2688 -1331 1869 -1331 
Q 1566 -1331 1297 -1286 
Q 1028 -1241 775 -1147 
L 775 -588 
Q 1028 -725 1275 -790 
Q 1522 -856 1778 -856 
Q 2344 -856 2625 -561 
Q 2906 -266 2906 331 
L 2906 616 
Q 2728 306 2450 153 
Q 2172 0 1784 0 
Q 1141 0 747 490 
Q 353 981 353 1791 
Q 353 2603 747 3093 
Q 1141 3584 1784 3584 
Q 2172 3584 2450 3431 
Q 2728 3278 2906 2969 
L 2906 3500 
L 3481 3500 
L 3481 434 
z
" transform="scale(0.015625)"/>
       <path id="DejaVuSans-68" d="M 3513 2113 
L 3513 0 
L 2938 0 
L 2938 2094 
Q 2938 2591 2744 2837 
Q 2550 3084 2163 3084 
Q 1697 3084 1428 2787 
Q 1159 2491 1159 1978 
L 1159 0 
L 581 0 
L 581 4863 
L 1159 4863 
L 1159 2956 
Q 1366 3272 1645 3428 
Q 1925 3584 2291 3584 
Q 2894 3584 3203 3211 
Q 3513 2838 3513 2113 
z
" transform="scale(0.015625)"/>
      </defs>
      <use xlink:href="#DejaVuSans-48"/>
      <use xlink:href="#DejaVuSans-69" x="75.195312"/>
      <use xlink:href="#DejaVuSans-67" x="102.978516"/>
      <use xlink:href="#DejaVuSans-68" x="166.455078"/>
     </g>
    </g>
    <g id="line2d_20">
     <path d="M 81 79.616562 
L 91 79.616562 
L 101 79.616562 
" style="fill: none; stroke: #ff7f0e; stroke-width: 1.2; stroke-linecap: square"/>
    </g>
    <g id="text_18">
     <!-- Low -->
     <g transform="translate(109 83.116562)scale(0.1 -0.1)">
      <defs>
       <path id="DejaVuSans-4c" d="M 628 4666 
L 1259 4666 
L 1259 531 
L 3531 531 
L 3531 0 
L 628 0 
L 628 4666 
z
" transform="scale(0.015625)"/>
       <path id="DejaVuSans-77" d="M 269 3500 
L 844 3500 
L 1563 769 
L 2278 3500 
L 2956 3500 
L 3675 769 
L 4391 3500 
L 4966 3500 
L 4050 0 
L 3372 0 
L 2619 2869 
L 1863 0 
L 1184 0 
L 269 3500 
z
" transform="scale(0.015625)"/>
      </defs>
      <use xlink:href="#DejaVuSans-4c"/>
      <use xlink:href="#DejaVuSans-6f" x="53.962891"/>
      <use xlink:href="#DejaVuSans-77" x="115.144531"/>
     </g>
    </g>
    <g id="line2d_21">
     <path d="M 81 94.294687 
L 91 94.294687 
L 101 94.294687 
" style="fill: none; stroke: #2ca02c; stroke-width: 1.2; stroke-linecap: square"/>
    </g>
    <g id="text_19">
     <!-- Open -->
     <g transform="translate(109 97.794687)scale(0.1 -0.1)">
      <defs>
       <path id="DejaVuSans-4f" d="M 2522 4238 
Q 1834 4238 1429 3725 
Q 1025 3213 1025 2328 
Q 1025 1447 1429 934 
Q 1834 422 2522 422 
Q 3209 422 3611 934 
Q 4013 1447 4013 2328 
Q 4013 3213 3611 3725 
Q 3209 4238 2522 4238 
z
M 2522 4750 
Q 3503 4750 4090 4092 
Q 4678 3434 4678 2328 
Q 4678 1225 4090 567 
Q 3503 -91 2522 -91 
Q 1538 -91 948 565 
Q 359 1222 359 2328 
Q 359 3434 948 4092 
Q 1538 4750 2522 4750 
z
" transform="scale(0.015625)"/>
      </defs>
      <use xlink:href="#DejaVuSans-4f"/>
      <use xlink:href="#DejaVuSans-70" x="78.710938"/>
      <use xlink:href="#DejaVuSans-65" x="142.1875"/>
      <use xlink:href="#DejaVuSans-6e" x="203.710938"/>
     </g>
    </g>
    <g id="line2d_22">
     <path d="M 81 108.972812 
L 91 108.972812 
L 101 108.972812 
" style="fill: none; stroke: #d62728; stroke-width: 1.2; stroke-linecap: square"/>
    </g>
    <g id="text_20">
     <!-- Close -->
     <g transform="translate(109 112.472812)scale(0.1 -0.1)">
      <defs>
       <path id="DejaVuSans-43" d="M 4122 4306 
L 4122 3641 
Q 3803 3938 3442 4084 
Q 3081 4231 2675 4231 
Q 1875 4231 1450 3742 
Q 1025 3253 1025 2328 
Q 1025 1406 1450 917 
Q 1875 428 2675 428 
Q 3081 428 3442 575 
Q 3803 722 4122 1019 
L 4122 359 
Q 3791 134 3420 21 
Q 3050 -91 2638 -91 
Q 1578 -91 968 557 
Q 359 1206 359 2328 
Q 359 3453 968 4101 
Q 1578 4750 2638 4750 
Q 3056 4750 3426 4639 
Q 3797 4528 4122 4306 
z
" transform="scale(0.015625)"/>
       <path id="DejaVuSans-6c" d="M 603 4863 
L 1178 4863 
L 1178 0 
L 603 0 
L 603 4863 
z
" transform="scale(0.015625)"/>
      </defs>
      <use xlink:href="#DejaVuSans-43"/>
      <use xlink:href="#DejaVuSans-6c" x="69.824219"/>
      <use xlink:href="#DejaVuSans-6f" x="97.607422"/>
      <use xlink:href="#DejaVuSans-73" x="158.789062"/>
      <use xlink:href="#DejaVuSans-65" x="210.888672"/>
     </g>
    </g>
    <g id="line2d_23">
     <path d="M 81 123.650937 
L 91 123.650937 
L 101 123.650937 
" style="fill: none; stroke: #9467bd; stroke-width: 1.2; stroke-linecap: square"/>
    </g>
    <g id="text_21">
     <!-- Adj Close -->
     <g transform="translate(109 127.150937)scale(0.1 -0.1)">
      <defs>
       <path id="DejaVuSans-41" d="M 2188 4044 
L 1331 1722 
L 3047 1722 
L 2188 4044 
z
M 1831 4666 
L 2547 4666 
L 4325 0 
L 3669 0 
L 3244 1197 
L 1141 1197 
L 716 0 
L 50 0 
L 1831 4666 
z
" transform="scale(0.015625)"/>
       <path id="DejaVuSans-64" d="M 2906 2969 
L 2906 4863 
L 3481 4863 
L 3481 0 
L 2906 0 
L 2906 525 
Q 2725 213 2448 61 
Q 2172 -91 1784 -91 
Q 1150 -91 751 415 
Q 353 922 353 1747 
Q 353 2572 751 3078 
Q 1150 3584 1784 3584 
Q 2172 3584 2448 3432 
Q 2725 3281 2906 2969 
z
M 947 1747 
Q 947 1113 1208 752 
Q 1469 391 1925 391 
Q 2381 391 2643 752 
Q 2906 1113 2906 1747 
Q 2906 2381 2643 2742 
Q 2381 3103 1925 3103 
Q 1469 3103 1208 2742 
Q 947 2381 947 1747 
z
" transform="scale(0.015625)"/>
       <path id="DejaVuSans-6a" d="M 603 3500 
L 1178 3500 
L 1178 -63 
Q 1178 -731 923 -1031 
Q 669 -1331 103 -1331 
L -116 -1331 
L -116 -844 
L 38 -844 
Q 366 -844 484 -692 
Q 603 -541 603 -63 
L 603 3500 
z
M 603 4863 
L 1178 4863 
L 1178 4134 
L 603 4134 
L 603 4863 
z
" transform="scale(0.015625)"/>
      </defs>
      <use xlink:href="#DejaVuSans-41"/>
      <use xlink:href="#DejaVuSans-64" x="66.658203"/>
      <use xlink:href="#DejaVuSans-6a" x="130.134766"/>
      <use xlink:href="#DejaVuSans-20" x="157.917969"/>
      <use xlink:href="#DejaVuSans-43" x="189.705078"/>
      <use xlink:href="#DejaVuSans-6c" x="259.529297"/>
      <use xlink:href="#DejaVuSans-6f" x="287.3125"/>
      <use xlink:href="#DejaVuSans-73" x="348.494141"/>
      <use xlink:href="#DejaVuSans-65" x="400.59375"/>
     </g>
    </g>
   </g>
  </g>
 </g>
 <defs>
  <clipPath id="p7bd615af7d">
   <rect x="72" y="51.84" width="446.4" height="332.64"/>
  </clipPath>
 </defs>
</svg>
